<svg xmlns="http://www.w3.org/2000/svg" width="383" height="385" fill="none" viewBox="0 0 383 385">
    <rect width="2.698" height="26.976" fill="#1A2643" rx="1.349" transform="matrix(1 0 0 -1 291.282 205.642)"/>
    <rect width="2.698" height="26.976" fill="#1A2643" rx="1.349" transform="matrix(1 0 0 -1 347.932 205.642)"/>
    <rect width="2.698" height="37.767" fill="#1A2643" rx="1.349" transform="matrix(1 0 0 -1 331.745 211.037)"/>
    <rect width="2.698" height="91.719" fill="#1A2643" rx="1.349" transform="matrix(1 0 0 -1 299.373 238.013)"/>
    <rect width="2.698" height="43.162" fill="#1A2643" rx="1.349" transform="matrix(1 0 0 -1 307.467 213.735)"/>
    <rect width="2.698" height="64.743" fill="#1A2643" rx="1.349" transform="matrix(1 0 0 -1 315.56 224.525)"/>
    <rect width="2.698" height="53.952" fill="#1A2643" rx="1.349" transform="matrix(1 0 0 -1 339.839 219.13)"/>
    <rect width="2.698" height="21.581" fill="#1A2643" rx="1.349" transform="matrix(1 0 0 -1 323.654 202.944)"/>
    <rect width="2.698" height="16.186" fill="#1A2643" rx="1.349" transform="matrix(1 0 0 -1 356.024 200.247)"/>
    <rect width="2.698" height="26.976" x="67.44" y="205.642" fill="#1A2643" rx="1.349" transform="rotate(-180 67.44 205.642)"/>
    <rect width="2.698" height="26.976" x="10.79" y="205.642" fill="#1A2643" rx="1.349" transform="rotate(-180 10.79 205.642)"/>
    <rect width="2.698" height="37.767" x="26.977" y="211.037" fill="#1A2643" rx="1.349" transform="rotate(-180 26.977 211.037)"/>
    <rect width="2.698" height="91.719" x="59.349" y="238.013" fill="#1A2643" rx="1.349" transform="rotate(-180 59.349 238.013)"/>
    <rect width="2.698" height="43.162" x="51.255" y="213.735" fill="#1A2643" rx="1.349" transform="rotate(-180 51.255 213.735)"/>
    <rect width="2.698" height="64.743" x="43.162" y="224.525" fill="#1A2643" rx="1.349" transform="rotate(-180 43.162 224.525)"/>
    <rect width="2.698" height="53.952" x="18.883" y="219.13" fill="#1A2643" rx="1.349" transform="rotate(-180 18.883 219.13)"/>
    <rect width="2.698" height="21.581" x="35.068" y="202.944" fill="#1A2643" rx="1.349" transform="rotate(-180 35.068 202.944)"/>
    <rect width="2.698" height="16.186" x="2.698" y="200.247" fill="#1A2643" rx="1.349" transform="rotate(-180 2.698 200.247)"/>
    <rect width="210.013" height="381.635" x="74.493" y="1.507" fill="#fff" stroke="#1A2643" stroke-width="3.014" rx="24.109"/>
    <rect width="195.13" height="366.904" x="82.021" y="9.312" fill="#1A2643" rx="22.602"/>
    <circle cx="219.14" cy="24.38" r="3.014" fill="#fff"/>
    <rect width="72.326" height="3.014" x="137.773" y="22.873" fill="#fff" rx="1.507"/>
    <circle cx="179.876" cy="303.351" r="24.087" fill="#C73434"/>
    <path fill="#fff" d="M168.308 306.709l4.13-.492a1.6 1.6 0 0 0 1.401-1.716 38.128 38.128 0 0 1-.106-1.646c-.007-1.413 2.654-1.902 5.741-1.911 3.087-.008 5.401.507 5.387 1.907-.011.17-.036.772-.1 1.645-.051.851.542 1.604 1.39 1.713l4.128.475c.713.088 1.398-.337 1.666-1.004.35-.914.541-2.006.554-2.586-.005-3.348-6.007-6.373-13.297-6.356-7.254.008-13.085 3.041-13.103 6.376.01.593.195 1.697.55 2.607.268.654.959 1.083 1.66.988h-.001zM115.381 88.993v2.005h-6.739v3.342h6.052v1.897h-6.052v3.378h6.955v2.006h-9.086V88.993h8.87zM120.065 101.621h-2.023V88.216h2.023v13.405zM131.941 97.7h-7.533c.048.699.367 1.265.958 1.699.59.421 1.264.632 2.023.632 1.204 0 2.12-.38 2.746-1.138l1.156 1.264c-1.036 1.072-2.385 1.608-4.047 1.608-1.349 0-2.499-.445-3.45-1.337-.94-.903-1.409-2.107-1.409-3.613 0-1.517.482-2.722 1.445-3.613.964-.891 2.096-1.337 3.396-1.337 1.313 0 2.427.398 3.342 1.193.916.782 1.373 1.866 1.373 3.251V97.7zm-7.533-1.59h5.51c0-.806-.253-1.427-.759-1.86-.506-.434-1.132-.65-1.878-.65-.735 0-1.398.228-1.988.686-.59.446-.885 1.054-.885 1.825zM136.589 91.215v.795h2.529v1.626h-2.529v7.985h-2.023v-7.985h-1.211V92.01h1.211v-.74c0-1.013.301-1.813.903-2.404a3.038 3.038 0 0 1 2.204-.903c.867 0 1.656.32 2.366.958l-.831 1.427c-.397-.422-.813-.632-1.246-.632-.434 0-.771.138-1.012.415-.241.265-.361.626-.361 1.084zM150.007 97.7h-7.533c.048.699.367 1.265.957 1.699.59.421 1.265.632 2.023.632 1.205 0 2.12-.38 2.746-1.138l1.156 1.264c-1.035 1.072-2.384 1.608-4.046 1.608-1.349 0-2.499-.445-3.451-1.337-.939-.903-1.409-2.107-1.409-3.613 0-1.517.482-2.722 1.445-3.613.964-.891 2.096-1.337 3.397-1.337 1.312 0 2.427.398 3.342 1.193.915.782 1.373 1.866 1.373 3.251V97.7zm-7.533-1.59h5.509c0-.806-.252-1.427-.758-1.86-.506-.434-1.132-.65-1.879-.65a3.16 3.16 0 0 0-1.987.686c-.59.446-.885 1.054-.885 1.825zM154.255 96.418v5.203h-2.023V92.01h2.023v1.752a3.62 3.62 0 0 1 3.198-1.897c1.084 0 1.957.332 2.619.994.675.662 1.012 1.62 1.012 2.872v5.89h-2.023v-5.275c0-1.77-.735-2.656-2.204-2.656-.699 0-1.307.235-1.825.704-.518.458-.777 1.133-.777 2.024zM167.831 101.765c-1.216 0-2.276-.458-3.179-1.373-.904-.915-1.355-2.12-1.355-3.613 0-1.493.463-2.686 1.391-3.577.927-.891 2.029-1.337 3.306-1.337 1.288 0 2.324.542 3.107 1.626v-5.275h2.023v13.405h-2.023v-1.446c-.747 1.06-1.837 1.59-3.27 1.59zm-2.511-4.896c0 .916.295 1.662.885 2.24.59.579 1.283.868 2.078.868.795 0 1.469-.29 2.023-.868.554-.59.831-1.342.831-2.258 0-.915-.277-1.68-.831-2.294-.554-.614-1.234-.921-2.041-.921-.807 0-1.5.307-2.078.921-.578.614-.867 1.385-.867 2.312zM185.107 90.655c-.614 0-1.12.126-1.518.38-.397.252-.596.638-.596 1.156 0 .505.199.897.596 1.174.398.265 1.241.554 2.529.867 1.301.313 2.277.753 2.927 1.319.662.566.994 1.403.994 2.51 0 1.097-.416 1.988-1.247 2.674-.831.687-1.921 1.03-3.27 1.03-1.975 0-3.727-.68-5.257-2.041l1.337-1.608c1.277 1.108 2.601 1.662 3.974 1.662.687 0 1.229-.145 1.626-.434.41-.3.615-.692.615-1.174 0-.494-.193-.873-.579-1.138-.373-.277-1.023-.524-1.951-.74-.927-.23-1.631-.434-2.113-.615a4.956 4.956 0 0 1-1.283-.74c-.747-.567-1.12-1.434-1.12-2.602s.422-2.066 1.265-2.692c.855-.638 1.909-.957 3.161-.957.807 0 1.608.132 2.403.397a6.277 6.277 0 0 1 2.059 1.12l-1.138 1.608c-.373-.337-.879-.614-1.517-.83a5.876 5.876 0 0 0-1.897-.326zM201.327 97.7h-7.533c.048.699.367 1.265.958 1.699.59.421 1.264.632 2.023.632 1.204 0 2.12-.38 2.746-1.138l1.156 1.264c-1.036 1.072-2.385 1.608-4.047 1.608-1.348 0-2.499-.445-3.45-1.337-.94-.903-1.409-2.107-1.409-3.613 0-1.517.482-2.722 1.445-3.613.964-.891 2.096-1.337 3.396-1.337 1.313 0 2.427.398 3.342 1.193.916.782 1.373 1.866 1.373 3.251V97.7zm-7.533-1.59h5.51c0-.806-.253-1.427-.759-1.86-.506-.434-1.132-.65-1.878-.65-.735 0-1.398.228-1.988.686-.59.446-.885 1.054-.885 1.825zM207.816 101.765c-1.337 0-2.487-.451-3.451-1.355-.963-.915-1.445-2.107-1.445-3.577 0-1.469.5-2.661 1.5-3.577 1.011-.927 2.24-1.39 3.685-1.39 1.445 0 2.668.5 3.667 1.499l-1.192 1.463c-.831-.723-1.668-1.084-2.511-1.084a3.18 3.18 0 0 0-2.204.85c-.614.553-.922 1.276-.922 2.167 0 .88.308 1.626.922 2.24.614.614 1.367.921 2.258.921.903 0 1.752-.409 2.547-1.228l1.192 1.3c-1.168 1.181-2.517 1.771-4.046 1.771zM220.682 97.213V92.01h2.023v9.611h-2.023v-1.753a3.589 3.589 0 0 1-1.355 1.391 3.531 3.531 0 0 1-1.843.506c-1.084 0-1.963-.331-2.638-.993-.662-.663-.993-1.62-.993-2.873v-5.89h2.023v5.276c0 1.77.735 2.656 2.204 2.656.699 0 1.307-.23 1.825-.687.518-.47.777-1.15.777-2.041zM230.68 93.907c-.999 0-1.752.325-2.258.975-.506.65-.758 1.524-.758 2.62v4.119h-2.024V92.01h2.024v1.933a4.217 4.217 0 0 1 1.318-1.481c.566-.386 1.163-.585 1.789-.597l.018 2.042h-.109zM234.844 101.621h-2.023V92.01h2.023v9.611zm-1.897-11.526a1.233 1.233 0 0 1-.379-.903c0-.35.126-.65.379-.904.253-.253.554-.379.903-.379s.651.126.903.38c.253.252.38.553.38.903 0 .349-.127.65-.38.903-.252.253-.554.38-.903.38s-.65-.127-.903-.38zM240.271 93.636v4.877c0 .458.12.825.361 1.102.241.265.578.398 1.012.398.433 0 .849-.211 1.246-.633l.831 1.428c-.71.638-1.499.957-2.366.957a3.07 3.07 0 0 1-2.204-.885c-.602-.602-.903-1.41-.903-2.42v-4.824h-1.211V92.01h1.211v-3.017h2.023v3.017h2.529v1.626h-2.529zM246.539 105.45c-.879 0-1.674-.319-2.385-.957l.922-1.644c.421.398.855.596 1.3.596.458 0 .825-.162 1.102-.488.29-.325.434-.68.434-1.065 0-.169-1.295-3.463-3.884-9.882h2.168l2.872 7.081 2.873-7.081h2.167l-4.66 11.417c-.277.626-.675 1.12-1.193 1.482a2.935 2.935 0 0 1-1.716.541z"/>
    <circle cx="179.124" cy="197.969" r="32.367" stroke="#fff" stroke-width="1.507"/>
    <path fill="#fff" fill-rule="evenodd" d="M179.124 179.904c-5.345 0-9.698 4.348-9.698 9.693 0 2.589.757 5.828 2.323 8.518.463.797 1.01 1.551 1.634 2.216-.05.387-.128.696-.215.892-.104.236-.177.282-.247.308-.98.369-3.621.584-6.114 1.363-2.495.78-5.054 2.319-5.73 5.466l-.002-.002a.826.826 0 0 0 .254.783c9.807 8.857 25.782 8.857 35.588 0a.826.826 0 0 0 .253-.783c-.677-3.145-3.235-4.685-5.73-5.466-2.494-.779-5.136-.992-6.112-1.363h-.002c-.131-.049-.21-.115-.321-.327-.088-.171-.17-.438-.227-.781a12.172 12.172 0 0 0 1.717-2.306c1.566-2.691 2.322-5.929 2.322-8.518 0-5.345-4.349-9.693-9.693-9.693z" clip-rule="evenodd"/>
    <path fill="#fff" d="M156.593 69.253h-1.59l-3.384-8.418h1.59l2.589 6.287 2.589-6.287h1.59l-3.384 8.418zM161.967 67.567c.385.386.871.578 1.457.578.586 0 1.068-.192 1.446-.578.385-.393.578-.899.578-1.517 0-.618-.193-1.12-.578-1.506-.378-.393-.86-.59-1.446-.59s-1.072.197-1.457.59c-.377.386-.566.888-.566 1.506s.189 1.124.566 1.517zm3.866.831c-.642.635-1.445.952-2.409.952-.963 0-1.766-.317-2.408-.952-.643-.642-.964-1.425-.964-2.348 0-.924.321-1.702.964-2.337.642-.642 1.445-.963 2.408-.963.964 0 1.767.321 2.409.963.642.635.963 1.413.963 2.337 0 .923-.321 1.706-.963 2.348zM169.679 69.253h-1.349v-6.407h1.349v6.407zm-1.265-7.683a.824.824 0 0 1-.252-.603c0-.232.084-.433.252-.602a.825.825 0 0 1 .603-.253c.232 0 .433.085.602.253.168.169.253.37.253.602a.825.825 0 0 1-.253.603.824.824 0 0 1-.602.252.825.825 0 0 1-.603-.252zM174.477 69.35a3.246 3.246 0 0 1-2.3-.903c-.642-.61-.963-1.406-.963-2.385 0-.98.333-1.775.999-2.385.675-.618 1.494-.927 2.457-.927.964 0 1.779.333 2.445 1l-.795.975c-.554-.482-1.112-.723-1.674-.723a2.12 2.12 0 0 0-1.469.567c-.41.369-.615.85-.615 1.445 0 .586.205 1.084.615 1.493.409.41.911.614 1.505.614.602 0 1.168-.273 1.698-.819l.795.867c-.779.787-1.678 1.18-2.698 1.18zM184.536 66.64h-5.022c.032.466.245.843.638 1.132.393.281.843.422 1.349.422.803 0 1.413-.253 1.831-.76l.77.844c-.69.715-1.589 1.072-2.697 1.072-.9 0-1.667-.297-2.301-.891-.626-.603-.939-1.406-.939-2.41 0-1.01.321-1.814.963-2.408a3.227 3.227 0 0 1 2.264-.891c.876 0 1.618.265 2.229.795.61.522.915 1.244.915 2.168v.927zm-5.022-1.06h3.673c0-.538-.169-.951-.506-1.24-.337-.29-.755-.434-1.252-.434-.49 0-.932.153-1.325.458-.394.297-.59.702-.59 1.216zM192.166 69.35a3.246 3.246 0 0 1-2.3-.903c-.642-.61-.963-1.406-.963-2.385 0-.98.333-1.775.999-2.385.675-.618 1.494-.927 2.457-.927.964 0 1.779.333 2.445 1l-.795.975c-.554-.482-1.112-.723-1.674-.723a2.12 2.12 0 0 0-1.469.567c-.41.369-.614.85-.614 1.445 0 .586.204 1.084.614 1.493.409.41.911.614 1.505.614.602 0 1.168-.273 1.698-.819l.795.867c-.779.787-1.678 1.18-2.698 1.18zM201.407 69.253h-1.228v-.855c-.53.635-1.241.952-2.132.952-.666 0-1.221-.189-1.662-.566-.434-.378-.65-.88-.65-1.506 0-.634.232-1.108.698-1.42.466-.314 1.096-.47 1.891-.47h1.746v-.241c0-.852-.473-1.277-1.421-1.277-.594 0-1.212.217-1.855.65l-.602-.843a4.149 4.149 0 0 1 2.65-.927c.755 0 1.369.193 1.842.578.482.377.723.975.723 1.794v4.131zm-1.349-2.384v-.542h-1.517c-.972 0-1.458.305-1.458.915 0 .313.121.554.362.723.241.16.574.24.999.24.434 0 .811-.12 1.132-.36.322-.242.482-.567.482-.976zM204.634 69.253h-1.349v-8.936h1.349v8.936zM207.939 69.253h-1.349v-8.936h1.349v8.936zM168.909 117.663c-.329.578-.493 1.337-.493 2.276 0 .939.164 1.698.493 2.276.338.578.859.867 1.566.867.707 0 1.22-.285 1.542-.855.329-.578.493-1.341.493-2.288 0-.947-.164-1.706-.493-2.276-.322-.578-.835-.867-1.542-.867-.707 0-1.228.289-1.566.867zm-1.011 5.455c-.57-.794-.855-1.854-.855-3.179 0-1.325.285-2.381.855-3.168.57-.794 1.429-1.192 2.577-1.192s2.007.398 2.577 1.192c.57.787.855 1.843.855 3.168 0 1.325-.285 2.385-.855 3.179-.57.787-1.429 1.181-2.577 1.181s-2.007-.394-2.577-1.181zM175.744 124.034a.892.892 0 0 1-.253-.639.85.85 0 0 1 .253-.626.87.87 0 0 1 .638-.265.87.87 0 0 1 .638.265.831.831 0 0 1 .265.626.87.87 0 0 1-.265.639.87.87 0 0 1-.638.265.87.87 0 0 1-.638-.265zm0-2.951a.89.89 0 0 1-.253-.638c0-.249.084-.458.253-.626a.867.867 0 0 1 .638-.265c.249 0 .462.088.638.265a.828.828 0 0 1 .265.626.868.868 0 0 1-.265.638.867.867 0 0 1-.638.265.867.867 0 0 1-.638-.265zM180.729 117.663c-.329.578-.493 1.337-.493 2.276 0 .939.164 1.698.493 2.276.338.578.86.867 1.566.867.707 0 1.221-.285 1.542-.855.329-.578.494-1.341.494-2.288 0-.947-.165-1.706-.494-2.276-.321-.578-.835-.867-1.542-.867-.706 0-1.228.289-1.566.867zm-1.011 5.455c-.57-.794-.855-1.854-.855-3.179 0-1.325.285-2.381.855-3.168.57-.794 1.429-1.192 2.577-1.192s2.007.398 2.578 1.192c.57.787.855 1.843.855 3.168 0 1.325-.285 2.385-.855 3.179-.571.787-1.43 1.181-2.578 1.181s-2.007-.394-2.577-1.181zM192.297 115.772v1.289h-3.553v2.071a2.474 2.474 0 0 1 1.205-.289c.786 0 1.465.237 2.035.711.57.473.855 1.116.855 1.927 0 .81-.297 1.485-.891 2.023-.594.53-1.325.795-2.192.795-1.132 0-2.035-.378-2.71-1.132l.759-1.036c.064.064.148.14.253.229.112.088.337.208.674.361.337.145.707.217 1.108.217.402 0 .767-.121 1.096-.361.329-.241.494-.591.494-1.048 0-.466-.177-.823-.53-1.072-.345-.257-.787-.386-1.325-.386a3.1 3.1 0 0 0-1.517.398l-.602-.65v-4.047h4.841z"/>
</svg>
