<svg xmlns="http://www.w3.org/2000/svg" width="108" height="24" fill="none" viewBox="0 0 108 24">
    <mask id="a" width="12" height="15" x="14" y="0" maskUnits="userSpaceOnUse">
        <path fill="#939393" d="M20.442 0h5.542l-5.086 13.711c-1.692.133-4.15.678-6.411.833"/>
    </mask>
    <g mask="url(#a)">
        <path fill="#939393" fill-rule="evenodd" d="M20.442 0l-5.955 14.544c2.262-.155 4.719-.7 6.411-.833L25.984 0h-5.542z" clip-rule="evenodd"/>
    </g>
    <mask id="b" width="12" height="15" x="14" y="0" maskUnits="userSpaceOnUse">
        <path fill="#939393" d="M20.437.003H25.979l-.078.21.078 1.61v12.723H14.482V.062l1.224-.06h4.73l-5.954 14.543c2.264-.155 4.719-.7 6.412-.833L25.9.214"/>
    </mask>
    <g mask="url(#b)">
        <path fill="#939393" fill-rule="evenodd" d="M20.437.003l-5.955 14.542c2.264-.155 4.719-.7 6.412-.833L25.979.002h-5.542z" clip-rule="evenodd"/>
        <mask id="c" width="12" height="15" x="14" y="0" maskUnits="userSpaceOnUse">
            <path fill="#939393" d="M20.437.003H25.979l-.078.21.078 1.61v12.723H14.482V.062l1.224-.06h4.73l-5.954 14.543c2.264-.155 4.719-.7 6.412-.833L25.9.214"/>
        </mask>
        <g mask="url(#c)">
            <path fill="#939393" fill-rule="evenodd" d="M20.437.003l-5.955 14.542c2.264-.155 4.719-.7 6.412-.833L25.979.002h-5.542z" clip-rule="evenodd"/>
        </g>
    </g>
    <mask id="d" width="9" height="5" x="10" y="19" maskUnits="userSpaceOnUse">
        <path fill="#939393" d="M10.772 19.145h8.116v4.451h-8.116v-4.451z"/>
    </mask>
    <g mask="url(#d)">
        <path fill="#939393" fill-rule="evenodd" d="M12.335 19.788c2.584.126 5.477-.44 6.553-.643l-1.651 4.47h-6.465l1.563-3.827z" clip-rule="evenodd"/>
    </g>
    <mask id="e" width="9" height="5" x="10" y="19" maskUnits="userSpaceOnUse">
        <path fill="#939393" d="M10.796 23.596l-.004-.022 1.546-3.789c2.586.127 5.478-.439 6.552-.641l-1.645 4.452h-6.45z"/>
    </mask>
    <g fill="#939393" mask="url(#e)">
        <path fill-rule="evenodd" d="M.018 23.596h113.584V-.142H.018v23.738z" clip-rule="evenodd"/>
        <path d="M10.796 23.596l-.004-.022 1.546-3.789c2.586.127 5.478-.439 6.552-.641l-1.645 4.452h-6.45z"/>
    </g>
    <path fill="#939393" fill-rule="evenodd" d="M93.472 12.706v-8.81h1.74c2.6-.001 3.963 1.844 3.963 4.41 0 2.748-1.52 4.4-3.963 4.4h-1.74zm-25.087 0v-8.81h1.26c3.273-.001 4.453 2.068 4.453 4.41 0 2.73-1.508 4.4-4.453 4.4h-1.26zm-23.452-6.18l2.63 7.03c-.13-.02-1.443-.181-2.63-.181-1.113 0-2.556.164-2.677.181l2.677-7.03zM33.005 21.55a17.504 17.504 0 0 0-4.627-1.906l1.432 3.97H38.6l1.942-5.228a27.58 27.58 0 0 1 4.39-.375c2.273 0 4.196.36 4.32.387l1.894 5.216h17.238v-9.508l7.213 9.508h17.874v-7.002h3.957c6.577 0 10.571-3.251 10.571-8.305 0-4.795-3.64-8.303-10.57-8.303H84.898v22.641l-6.73-7.316c1.033-.47 4.753-2.293 4.753-7.022 0-4.721-3.826-8.303-11.636-8.303H59.8v21.79L51.4.003H41.79l-6.045 14.804L30.035.004h-8.768l4.967 13.701c-.167-.033-1.715-.333-3.81-.333-4.767 0-6.301.85-10.154.85-5.323 0-9.946-2.986-10.425-3.298L0 15.439c.25.168 5.043 3.551 11.994 3.551 4.279 0 6.898-1.005 11.015-1.005 5.325 0 9.033 1.878 10.36 2.665l-.364.9z" clip-rule="evenodd"/>
</svg>
