<svg xmlns="http://www.w3.org/2000/svg" width="81" height="32" fill="none" viewBox="0 0 81 32">
    <path fill="#22BFD3" d="M73.293 22.067l-2.298-2.373a.196.196 0 0 1-.033-.26l1.754-2.953a.338.338 0 0 0-.295-.504h-1.285a.348.348 0 0 0-.306.177l-1.112 1.92c-.05.072-.161.091-.241.036l-1.795-1.847-.042-.11.057-.127.021-.02c1.015-.59 2.172-1.457 2.172-2.986 0-1.756-1.26-2.934-3.136-2.934-1.838 0-3.23 1.23-3.23 3.065 0 .808.337 1.612 1.03 2.46l.018.019.034.125a.174.174 0 0 1-.065.119c-1.53.868-2.3 2.018-2.3 3.426 0 2.387 1.998 3.637 3.974 3.637 1.355 0 2.411-.52 3.43-1.69l.019-.025c.062-.058.174-.058.243.01l1.234 1.278.032.034a.345.345 0 0 0 .242.098l1.514.002h.118a.342.342 0 0 0 .246-.577zm-6.507-10.21c.77 0 1.187.531 1.187 1.18 0 .76-.678 1.2-1.495 1.655l-.04.02a.17.17 0 0 1-.202-.033l-.017-.02c-.355-.388-.775-1.005-.775-1.452 0-.76.544-1.35 1.342-1.35zm1.647 8.106l-.005.008c-.594.706-1.245 1.178-2.193 1.178-1.124 0-2.004-.809-2.004-1.839 0-.914.39-1.458 1.546-2.155.08-.047.171-.038.227.019l2.412 2.524a.188.188 0 0 1 .065.133v.003l-.048.129zm-7.712 1.163l-.073.002c-1.844 0-2.78-.979-2.78-2.905v-5.68c0-.1.08-.18.181-.18h2.891a.344.344 0 0 0 .345-.343v-1.26a.345.345 0 0 0-.345-.345h-2.883a.188.188 0 0 1-.188-.188v-2.61a.348.348 0 0 0-.33-.355h-.041l-1.48.115a.344.344 0 0 0-.336.344v2.514a.18.18 0 0 1-.181.18l-1.815-.002a.345.345 0 0 0-.345.343l-.004 1.27c.004.093.042.18.109.24a.345.345 0 0 0 .248.097h1.809a.18.18 0 0 1 .18.179v6.06c0 3.253 2.448 4.413 4.596 4.413 0 0 .253.004.447-.015.195-.018.341-.154.341-.343v-1.19a.344.344 0 0 0-.346-.341zm-8.279 1.025a3.224 3.224 0 0 1-.158-.852c-.006-.118-.011-.596-.011-.596v-6.001c0-3.17-2.243-4.298-4.341-4.298-1.662 0-3.177.435-4.152 1.086a.36.36 0 0 0-.152.218.332.332 0 0 0 .049.252l.772 1.045a.341.341 0 0 0 .473.075l.104-.068a4.912 4.912 0 0 1 2.58-.747c2.588 0 2.512 2.026 2.512 2.29 0 .134-.08.168-.178.166l-.4-.008c-2.008-.074-7.105.61-7.105 4.65 0 2.373 1.979 3.583 3.824 3.583 1.787 0 3.226-.71 3.943-1.578l.009-.01.036-.019.046.047c-.001.11 0 .361.023.58.017.198.042.344.075.451.03.095.092.19.183.235a.345.345 0 0 0 .144.038l1.434.001c.186 0 .338-.15.338-.33 0-.059-.048-.21-.048-.21zm-2.23-4.7c-.294 2.073-1.314 3.268-3.197 3.576-1.325.218-2.526-.328-2.591-1.747-.072-1.56 1.74-2.87 5.086-2.726 0 0 .246.015.41.035.148.016.238.062.293.149.054.082.064.247-.002.714zm29.978 3.675l-.072.002c-1.846 0-2.781-.979-2.781-2.905v-5.68a.18.18 0 0 1 .18-.18h2.891a.345.345 0 0 0 .346-.343v-1.26a.346.346 0 0 0-.346-.345h-2.881a.188.188 0 0 1-.19-.188v-2.61a.345.345 0 0 0-.33-.355h-.04l-1.48.115a.344.344 0 0 0-.337.344v2.514a.18.18 0 0 1-.18.18l-1.816-.002a.345.345 0 0 0-.344.343l-.003 1.27a.348.348 0 0 0 .355.337h1.808a.18.18 0 0 1 .18.179v6.06c0 3.253 2.448 4.413 4.596 4.413 0 0 .254.004.45-.015.193-.018.338-.154.338-.343v-1.19a.341.341 0 0 0-.344-.341zm-44.214-8.281a7.11 7.11 0 0 0-.176-1.479c-.096-.401-.206-.799-.331-1.192.216.737.185 1.258.185 1.455 0 .904-1.125 6.416-12.136 7.42-.954.083-7.95.194-14.035-1.345-4.048-1.022-8.11-3.003-8.88-5.753-.119-.428-.063-.824.029-1.192a18.049 18.049 0 0 0-.612 3.418c.068 2.892 2.583 6.262 7.184 7.718 5.26 1.654 8.489 1.71 16.133.005 12.759-2.846 12.64-8.433 12.64-9.055zM7.6 28.233c-3.007-1.244-5.088-3.312-5.922-4.822a18.244 18.244 0 0 0 2.97 4.458C8.567 31.553 14.591 32 17.36 32c11.716 0 15.898-6.158 16.847-7.807.175-.33.34-.667.493-1.01-1.852 3.82-11.468 11.508-27.1 5.05zm12.75-2.414c-3.547.125-9.789-1.096-13.721-2.704C3.464 21.827.332 19.312 0 16.91c.037.571.101 1.14.194 1.704 1.939 10.58 15.268 9.976 17.562 9.723C34.52 26.477 35.96 19.32 36.183 17.906c.032-.296.064-.59.087-.89-.299 1.885-3.132 8.343-15.922 8.803zM5.19 4.427c0 1.657 2.408 4.305 9.395 4.305 4.141 0 7.485-.802 10.009-1.64 4.048-1.345 6.05-2.989 5.978-4.213a1.227 1.227 0 0 0-.308-.742A17.998 17.998 0 0 0 27.339 0c.692.4 1.083.87 1.083 1.391 0 1.824-4.458 3.496-10.281 3.648-5.822.147-10.647-1.286-10.777-3.104C7.323 1.33 7.755.737 8.58.212c-.628.387-1.23.813-1.805 1.275-1.621 1.345-1.584 2.764-1.584 2.94zM1.446 9.575c0-.778.11-1.322.317-1.81.356-.723.752-1.423 1.194-2.09-.115.188-.18.404-.18.662 0 1.69 4.141 3.888 9.793 4.606 1.916.244 6.986.935 10.91.612 7.927-.654 9.686-3.422 9.686-5.218 0-.493-.266-1.21-.534-1.63.361.478.7.973 1.013 1.483.609 1.055.53 1.474.53 1.658 0 3.675-6.84 6.07-11.413 7.323-11.74 3.206-21.316-1.165-21.316-5.596z"/>
    <path fill="#22BFD3" d="M.116 17.437A3.844 3.844 0 0 1 0 16.911c.028.447.074.885.134 1.322a5.139 5.139 0 0 1-.018-.796zm.507-6.64c-.115.404-.213.819-.3 1.238.046-.162.12-.337.211-.526a2.781 2.781 0 0 1 .089-.713zm1.063 12.627c.42.9.917 1.754 1.47 2.562a8.847 8.847 0 0 1-.747-1.507 7.416 7.416 0 0 1-.723-1.055zM3.976 8.06a4.871 4.871 0 0 1-.59-.52c-.788.543-1.441 1.123-1.935 1.735-.004.097-.004.199-.004.3 0 .193.019.392.056.584.603-.676 1.431-1.404 2.472-2.099zm28.752-.176c.49.255.93.526 1.322.816.084-.276.126-.563.125-.852 0-.18.073-.595-.506-1.621a17.925 17.925 0 0 0-1.014-1.488l-.013-.014c.266.42.524 1.124.524 1.612 0 .465-.12 1-.438 1.547zM2.944 5.693c-.051.077-.102.156-.152.235l.087-.102c.019-.046.041-.087.065-.133zM28.399 1.17a8.551 8.551 0 0 1 1.971 1.105l-.1-.134a18.3 18.3 0 0 0-1.853-1.46 5.787 5.787 0 0 0-.52-.285c.267.24.442.497.502.774zm3.34 25.442c-.048.261-.11.52-.184.774 1.483-1.322 2.289-2.565 2.647-3.183l.038-.07-.014-.133c-.553.815-1.387 1.727-2.487 2.612zm-21.993 0c0-.802.194-1.567.544-2.28a34.084 34.084 0 0 1-1.322-.382 5.69 5.69 0 0 0-.535 2.389c0 .378.042.75.116 1.11.446.144.898.263 1.349.369a4.797 4.797 0 0 1-.152-1.206zM35.81 11.404c-.042-.171-.083-.341-.13-.516a1.638 1.638 0 0 0-.087-.175c.08.451.061.769.061.916 0 .294-.12 1.088-.673 2.05.253.29.475.593.658.907.346-.899.337-1.552.337-1.741 0-.29-.037-.853-.166-1.441zm-.014 7.065c-.17.368-.396.774-.682 1.197.079.263.13.52.157.765.257-.44.468-.904.631-1.386a8.208 8.208 0 0 0-.106-.576zm-1.958 3.85c-.1-.273-.213-.54-.34-.801-.58.53-1.28 1.059-2.11 1.552.125.33.231.676.304 1.022a12.835 12.835 0 0 0 2.146-1.773zM6.5 6.669c1.916-.875 4.269-1.566 7.046-1.856a20.256 20.256 0 0 1-2.602-.498c-1.82.502-3.528 1.105-5.02 1.801.16.185.354.369.575.553zM1.916 21.803a7.287 7.287 0 0 1 .166-1.53 10.148 10.148 0 0 1-.732-.755 6.573 6.573 0 0 0-.125 2.22c.233.457.501.896.802 1.313a7.089 7.089 0 0 1-.11-1.248zm-.681-8.561a6.605 6.605 0 0 0-1.05 2.132c.055.235.128.473.216.71.272-.77.723-1.526 1.322-2.244a5.595 5.595 0 0 1-.488-.598zM7.52 2.436a21.66 21.66 0 0 0-2.173 1.046c-.11.336-.143.608-.152.778.8-.414 1.759-.839 2.827-1.252a2.202 2.202 0 0 1-.502-.572zm22.951 1c-.834-.29-1.828-.502-2.939-.65-1.294.995-3.91 1.796-7.17 2.114 2.05.208 4.546.562 6.926 1.115 1.801-.87 2.865-1.778 3.183-2.58zM27.235 24.81c.165.436.27.893.312 1.358a22.483 22.483 0 0 0 1.497-.616 5.694 5.694 0 0 0-.318-1.23c-.49.183-.988.346-1.491.488zm-1.622 5.946c.8-.272 1.582-.595 2.34-.968a6.4 6.4 0 0 0 .677-1.203c-.616.31-1.248.585-1.894.826a6.713 6.713 0 0 1-1.123 1.345zm-21.172-4.34c.156.665.404 1.3.733 1.916.644.535 1.335.996 2.053 1.392a7.713 7.713 0 0 1-1.174-2.247c-.562-.315-1.1-.67-1.612-1.06zm28.204-10.223c.43.36.797.713 1.106 1.067a8.75 8.75 0 0 0 1.087-1.229 8.509 8.509 0 0 0-.76-1.11c-.381.424-.851.858-1.433 1.272zM2.428 19.117c.451-1.159 1.189-2.242 2.16-3.214-.319-.163-.631-.339-.936-.526-.852.931-1.51 1.934-1.93 2.972.22.27.456.526.706.768zm33.12-8.69l-.061-.184c.015.05.028.097.037.143l.024.04zM10.51 29.297a38.1 38.1 0 0 1-1.524-.526c.41.88 1.041 1.686 1.846 2.386.65.179 1.305.328 1.967.447-.971-.63-1.759-1.419-2.289-2.308zm5.104-17.99c-1.285-.133-2.362-.277-3.044-.364a25.691 25.691 0 0 1-1.295-.194c-2.445.774-4.592 1.944-6.269 3.34.353.194.715.375 1.083.539 2.441-1.779 5.776-2.99 9.525-3.321zM5.73 25.469c0-.87.152-1.727.447-2.547a16.587 16.587 0 0 1-1.45-.732 7.397 7.397 0 0 0-.48 2.607c0 .179.01.355.023.529.48.36.987.686 1.515.972a6.343 6.343 0 0 1-.055-.83zm5.094-7.457a31.795 31.795 0 0 1-1.34-.307 23.597 23.597 0 0 1-.848-.232c-1.474 1.023-2.644 2.254-3.403 3.625.483.239.98.45 1.487.631a8.265 8.265 0 0 1 1.746-2.142 11.512 11.512 0 0 1 2.358-1.575zM6.297 9.341c-1.424.695-2.815 1.56-3.934 2.62.178.225.372.438.58.636 1.22-1.078 2.76-2.046 4.463-2.829a19.274 19.274 0 0 1-1.109-.427zm23.756 8.257c-.811.327-1.737.62-2.791.866.764.465 1.456.985 2.054 1.561.86-.372 1.611-.76 2.262-1.151a12.67 12.67 0 0 0-1.525-1.276zm-2.146-4.127a22.989 22.989 0 0 0 2.73-1.303 16.777 16.777 0 0 0-3.058-1.244c-1.137.281-2.492.498-4.099.631-.478.042-.971.065-1.478.079 1.124.212 2.202.502 3.219.837.986.328 1.875.66 2.686 1zm4.025-2.136c.916-.678 1.616-1.429 1.976-2.253a11.645 11.645 0 0 0-1.474-.76c-.534.686-1.41 1.364-2.777 1.93.806.327 1.57.69 2.275 1.083zm-10.313 7.756a62.99 62.99 0 0 1-4.498-.193c-3.142.363-5.814 1.768-7.333 3.712.503.115.999.211 1.487.293 1.602-1.757 4.31-2.915 7.383-2.915 2.243 0 4.293.612 5.859 1.63a33.804 33.804 0 0 0 1.732-.479c-1.248-.957-2.838-1.675-4.63-2.048zm-.363-11.077a32.92 32.92 0 0 0 3.34-.922c.542-.18 1.044-.368 1.51-.552a38.32 38.32 0 0 0-3.454-.493c-3.169-.29-7.886.612-9.106.866-.378.074-2.1.432-4.2 1.165.492.147 1.04.272 1.634.372 1.903-.534 3.87-.833 5.734-.833 1.235 0 2.815.13 4.542.397zm1.506 7.157c.309-.088.631-.175.958-.272a21.198 21.198 0 0 0-4.463-.465c-2.944 0-5.693.585-8.015 1.598 3.327.465 7.283.295 11.52-.861z"/>
</svg>
