<svg xmlns="http://www.w3.org/2000/svg" width="123" height="24" fill="none" viewBox="0 0 123 24">
    <path fill="#939393" d="M0 0h8.963c1.708 0 2.988.455 3.937 1.213 1.043.909 1.612 2.223 1.612 3.84 0 1.869-.711 3.03-2.134 3.738v.101c1.897.657 2.988 2.476 2.988 4.648 0 2.072-.759 3.689-1.992 4.7-1.043.808-2.371 1.161-4.173 1.161H0V0zm8.062 7.579c.949 0 1.66-.556 1.66-1.718 0-1.112-.711-1.668-1.707-1.668H4.932v3.335h3.13v.05zm.427 7.528c1.09 0 1.897-.708 1.897-1.97 0-1.365-.853-1.971-1.897-1.971H4.98v3.991h3.51v-.05zM16.172 0h4.695v19.452h-4.695V0zM21.815 12.53c0-4.396 2.656-7.326 6.782-7.326 4.126 0 6.735 2.98 6.735 7.326 0 4.395-2.609 7.326-6.735 7.326s-6.782-2.93-6.782-7.326zm8.822 0c0-2.425-.712-3.94-2.135-3.94-1.422 0-2.086 1.515-2.086 3.94s.664 3.991 2.086 3.991c1.423-.05 2.135-1.566 2.135-3.991zM35.853 12.53c0-4.396 2.656-7.326 6.782-7.326 4.126 0 6.687 2.93 6.687 7.326 0 4.395-2.608 7.326-6.734 7.326-4.079 0-6.735-2.93-6.735-7.326zm8.822 0c0-2.425-.712-3.94-2.134-3.94-1.423 0-2.087 1.515-2.087 3.94s.664 3.991 2.087 3.991c1.422-.05 2.134-1.566 2.134-3.991zM50.27 5.558h4.364v2.071h.094c.854-1.617 2.04-2.476 3.937-2.476 1.66 0 2.893.86 3.51 2.375h.094c1.043-1.819 2.419-2.375 4.031-2.375 3.035 0 4.316 2.375 4.316 5.558v8.69h-4.553V11.57c0-1.415-.427-2.324-1.565-2.324s-1.707 1.111-1.707 2.627v7.528h-4.553V11.57c0-1.415-.427-2.324-1.565-2.324s-1.707 1.111-1.707 2.627v7.528H50.27V5.558zM76.355 17.582h-.048v1.82h-4.363V0h4.553v6.972h.095c.854-1.212 2.04-1.87 3.7-1.87 3.272 0 5.168 3.133 5.168 7.327 0 4.699-2.039 7.427-5.453 7.427-1.423 0-2.893-.708-3.652-2.274zm4.41-5.204c0-2.223-.758-3.688-2.134-3.688-1.422 0-2.276 1.465-2.276 3.688s.9 3.689 2.276 3.689 2.134-1.415 2.134-3.689zM85.982 12.48c0-4.346 2.704-7.327 6.593-7.327 1.944 0 3.414.657 4.552 1.82 1.518 1.565 2.182 3.99 2.135 6.82h-8.727c.19 1.718.949 2.627 2.324 2.627.806 0 1.518-.404 1.802-1.314h4.41c-.758 3.184-3.082 4.75-6.354 4.75-4.031-.05-6.735-2.981-6.735-7.377zm4.553-1.466h4.174c-.095-1.667-.949-2.526-2.04-2.526-1.28-.05-1.992.91-2.134 2.526zM104.43 7.932h.095c.949-1.92 2.182-2.677 3.747-2.677.379 0 .616.05.759.151V9.65h-.095c-2.703-.505-4.268.859-4.268 3.991v5.81h-4.601V5.559h4.363v2.374zM109.506 19.452h4.41c.19.606.759 1.162 1.85 1.162 1.47 0 1.992-.96 1.992-2.425v-1.01h-.095c-.712.909-1.707 1.565-3.13 1.565-2.798 0-5.264-2.223-5.264-6.568 0-3.991 1.991-7.073 5.027-7.073 1.754 0 2.798.758 3.509 1.92h.095V5.507h4.363v12.025c0 2.223-.711 3.94-1.802 4.951-1.138 1.061-2.751 1.516-4.6 1.516-3.51.05-5.929-1.465-6.355-4.547zm8.441-7.478c0-1.718-.758-3.132-2.086-3.132-1.281 0-2.087 1.212-2.087 3.132 0 1.87.806 3.183 2.087 3.183 1.28 0 2.086-1.364 2.086-3.183z"/>
</svg>
