<svg xmlns="http://www.w3.org/2000/svg" width="16" height="16" fill="none" viewBox="0 0 16 16">
    <path fill="#000" fill-rule="evenodd" d="M8 0C5.829 0 5.556.01 4.703.048 3.85.088 3.269.222 2.76.42a3.917 3.917 0 0 0-1.417.923A3.927 3.927 0 0 0 .42 2.76C.222 3.268.087 3.85.048 4.7.01 5.555 0 5.827 0 8s.01 2.444.048 3.298c.04.851.174 1.433.372 1.941.205.527.478.973.923 1.418.444.445.89.719 1.416.923.51.198 1.09.333 1.942.372C5.555 15.99 5.827 16 8 16c2.172 0 2.444-.01 3.298-.048.851-.04 1.433-.174 1.942-.372a3.914 3.914 0 0 0 1.416-.923c.445-.445.719-.891.924-1.417.197-.51.332-1.09.371-1.942C15.99 10.445 16 10.173 16 8s-.01-2.445-.049-3.299c-.04-.851-.175-1.433-.371-1.941a3.926 3.926 0 0 0-.924-1.417A3.91 3.91 0 0 0 13.24.42c-.51-.198-1.092-.333-1.944-.372C10.444.01 10.172 0 7.998 0h.003zm-.717 1.442h.718c2.136 0 2.389.007 3.232.046.78.035 1.204.166 1.486.275.373.145.64.319.919.599.28.28.453.546.599.92.11.281.24.704.275 1.484.038.844.047 1.097.047 3.232 0 2.135-.008 2.388-.047 3.232-.036.78-.166 1.203-.275 1.485-.145.373-.319.639-.599.919-.28.28-.546.453-.92.598-.281.11-.705.24-1.485.276-.843.038-1.096.047-3.232.047s-2.39-.009-3.233-.047c-.78-.036-1.203-.166-1.485-.276a2.478 2.478 0 0 1-.92-.598 2.48 2.48 0 0 1-.6-.92c-.109-.282-.24-.705-.275-1.485-.038-.843-.046-1.096-.046-3.233 0-2.136.008-2.388.046-3.232.036-.78.166-1.203.276-1.485.145-.373.319-.64.599-.92.28-.28.546-.453.92-.599.282-.11.705-.24 1.485-.275.738-.034 1.024-.044 2.515-.045v.002zm4.988 1.328a.96.96 0 1 0 0 1.92.96.96 0 0 0 0-1.92zm-4.27 1.122a4.109 4.109 0 1 0 0 8.217 4.109 4.109 0 0 0 0-8.217zm0 1.441a2.667 2.667 0 1 1 0 5.334 2.667 2.667 0 0 1 0-5.334z" clip-rule="evenodd"/>
</svg>
