<svg xmlns="http://www.w3.org/2000/svg" width="247" height="471" fill="none" viewBox="0 0 247 471">
    <rect width="198.969" height="361.569" x="46.603" y="107.64" fill="#fff" stroke="#1A2643" stroke-width="2.851" rx="22.807"/>
    <rect width="184.708" height="347.307" x="54.032" y="116.07" fill="#1A2643" rx="21.382"/>
    <circle cx="182.816" cy="129.034" r="2.853" fill="#fff"/>
    <rect width="68.463" height="2.853" x="105.795" y="127.608" fill="#fff" rx="1.425"/>
    <circle cx="146.444" cy="393.615" r="22.821" fill="#C73434"/>
    <path fill="#fff" d="M135.486 396.797l3.913-.467a1.516 1.516 0 0 0 1.327-1.625 37.316 37.316 0 0 1-.101-1.56c-.006-1.338 2.514-1.802 5.439-1.81 2.925-.008 5.118.48 5.104 1.806-.01.162-.033.732-.094 1.559-.049.806.513 1.52 1.316 1.623l3.911.45c.676.084 1.325-.319 1.579-.952.332-.865.512-1.9.524-2.449-.004-3.173-5.691-6.039-12.597-6.022-6.873.008-12.397 2.881-12.414 6.041.009.561.184 1.608.52 2.47.255.619.91 1.026 1.573.936zM85.34 191.133v1.9h-6.384v3.166h5.734v1.797h-5.734v3.201h6.59v1.9h-8.61v-11.964h8.404zm4.438 11.964h-1.917v-12.7h1.917v12.7zm11.252-3.714h-7.137c.046.662.348 1.198.907 1.609.56.399 1.198.599 1.917.599 1.141 0 2.008-.36 2.602-1.079l1.095 1.199c-.981 1.015-2.26 1.523-3.834 1.523-1.278 0-2.368-.422-3.269-1.267-.89-.856-1.335-1.997-1.335-3.423 0-1.438.456-2.579 1.37-3.423.912-.844 1.985-1.267 3.217-1.267 1.244 0 2.3.377 3.166 1.13.868.742 1.301 1.769 1.301 3.081v1.318zm-7.137-1.506h5.22c0-.765-.24-1.353-.719-1.763-.479-.411-1.072-.617-1.78-.617-.696 0-1.323.217-1.882.651-.56.422-.84.998-.84 1.729zm11.54-4.639v.753h2.397v1.541h-2.397v7.565h-1.917v-7.565h-1.146v-1.541h1.146v-.701c0-.959.286-1.718.856-2.277a2.88 2.88 0 0 1 2.088-.856c.822 0 1.569.303 2.242.907l-.787 1.353c-.376-.4-.77-.599-1.181-.599-.411 0-.73.131-.958.393-.229.251-.343.594-.343 1.027zm12.713 6.145h-7.137c.045.662.348 1.198.907 1.609a3.217 3.217 0 0 0 1.917.599c1.141 0 2.008-.36 2.601-1.079l1.096 1.199c-.982 1.015-2.26 1.523-3.834 1.523-1.278 0-2.368-.422-3.269-1.267-.89-.856-1.335-1.997-1.335-3.423 0-1.438.456-2.579 1.369-3.423.913-.844 1.985-1.267 3.218-1.267 1.243 0 2.299.377 3.166 1.13.867.742 1.301 1.769 1.301 3.081v1.318zm-7.137-1.506h5.22c0-.765-.24-1.353-.719-1.763-.479-.411-1.072-.617-1.78-.617-.696 0-1.324.217-1.883.651-.559.422-.838.998-.838 1.729zm11.162.291v4.929h-1.917v-9.106h1.917v1.661a3.433 3.433 0 0 1 3.029-1.798c1.027 0 1.855.314 2.482.942.639.627.959 1.534.959 2.721v5.58h-1.917v-4.998c0-1.677-.696-2.516-2.088-2.516-.662 0-1.238.223-1.729.668-.491.433-.736 1.072-.736 1.917zm12.862 5.066c-1.152 0-2.156-.434-3.012-1.301-.856-.867-1.284-2.008-1.284-3.423s.439-2.545 1.318-3.389c.879-.844 1.923-1.267 3.132-1.267 1.221 0 2.202.514 2.944 1.541v-4.998h1.917v12.7h-1.917v-1.369c-.707 1.004-1.74 1.506-3.098 1.506zm-2.379-4.639c0 .868.28 1.575.839 2.123.559.547 1.215.821 1.968.821.753 0 1.392-.274 1.917-.821.525-.559.787-1.272.787-2.14 0-.867-.262-1.591-.787-2.173-.525-.582-1.17-.873-1.934-.873-.765 0-1.421.291-1.968.873-.548.582-.822 1.312-.822 2.19zm18.747-5.887c-.582 0-1.061.119-1.438.359-.376.24-.565.605-.565 1.095 0 .48.189.851.565 1.113.377.251 1.175.525 2.396.822 1.233.296 2.157.713 2.773 1.249.628.536.941 1.329.941 2.379 0 1.038-.393 1.883-1.181 2.533-.787.651-1.82.976-3.098.976-1.871 0-3.531-.645-4.98-1.934l1.266-1.524c1.21 1.05 2.465 1.575 3.766 1.575.65 0 1.164-.137 1.54-.411.388-.285.582-.656.582-1.112 0-.468-.182-.827-.548-1.079-.353-.262-.969-.496-1.848-.701-.879-.217-1.546-.411-2.003-.582a4.734 4.734 0 0 1-1.215-.702c-.707-.536-1.061-1.358-1.061-2.465 0-1.106.399-1.957 1.198-2.55.81-.605 1.809-.907 2.995-.907a7.16 7.16 0 0 1 2.277.377 5.942 5.942 0 0 1 1.951 1.061l-1.078 1.523c-.354-.319-.833-.582-1.438-.787a5.548 5.548 0 0 0-1.797-.308zm15.368 6.675h-7.138c.046.662.348 1.198.908 1.609a3.217 3.217 0 0 0 1.917.599c1.141 0 2.008-.36 2.601-1.079l1.096 1.199c-.982 1.015-2.26 1.523-3.834 1.523-1.278 0-2.368-.422-3.269-1.267-.89-.856-1.335-1.997-1.335-3.423 0-1.438.456-2.579 1.369-3.423.913-.844 1.985-1.267 3.218-1.267 1.243 0 2.299.377 3.166 1.13.867.742 1.301 1.769 1.301 3.081v1.318zm-7.138-1.506h5.221c0-.765-.24-1.353-.719-1.763-.479-.411-1.073-.617-1.78-.617-.696 0-1.324.217-1.883.651-.559.422-.839.998-.839 1.729zm13.285 5.357c-1.266 0-2.356-.428-3.269-1.284-.913-.867-1.369-1.997-1.369-3.389 0-1.392.473-2.522 1.42-3.389.959-.878 2.123-1.318 3.492-1.318 1.369 0 2.527.474 3.474 1.421l-1.129 1.386c-.787-.684-1.581-1.027-2.379-1.027-.799 0-1.495.269-2.088.805-.582.525-.873 1.209-.873 2.054 0 .833.291 1.54.873 2.122.582.582 1.295.873 2.139.873.856 0 1.66-.388 2.413-1.164l1.13 1.232c-1.107 1.119-2.385 1.678-3.834 1.678zm12.189-4.313v-4.93h1.917v9.106h-1.917v-1.66a3.393 3.393 0 0 1-1.283 1.318 3.354 3.354 0 0 1-1.746.479c-1.027 0-1.86-.314-2.499-.942-.627-.627-.941-1.534-.941-2.721v-5.58h1.917v4.998c0 1.677.696 2.516 2.088 2.516a2.53 2.53 0 0 0 1.729-.65c.49-.445.735-1.09.735-1.934zm9.474-3.133c-.947 0-1.66.309-2.14.925-.479.616-.719 1.443-.719 2.481v3.903h-1.917v-9.106h1.917v1.832a4.004 4.004 0 0 1 1.25-1.404c.536-.365 1.101-.553 1.694-.565l.017 1.934h-.102zm3.944 7.309h-1.917v-9.106h1.917v9.106zm-1.797-10.92a1.172 1.172 0 0 1-.359-.856c0-.331.12-.616.359-.856.24-.239.525-.359.856-.359.331 0 .616.12.856.359.239.24.359.525.359.856 0 .331-.12.616-.359.856-.24.24-.525.359-.856.359-.331 0-.616-.119-.856-.359zm6.939 3.355v4.621c0 .434.114.782.342 1.044.229.251.548.377.959.377.411 0 .804-.2 1.181-.599l.787 1.352c-.673.604-1.42.907-2.242.907a2.91 2.91 0 0 1-2.088-.839c-.571-.57-.856-1.335-.856-2.293v-4.57h-1.147v-1.541h1.147v-2.858h1.917v2.858h2.396v1.541h-2.396zm5.939 11.193c-.833 0-1.586-.302-2.26-.907l.873-1.557c.4.376.811.565 1.233.565.433 0 .781-.154 1.044-.463.274-.308.411-.644.411-1.009 0-.16-1.227-3.281-3.68-9.363h2.054l2.721 6.71 2.721-6.71h2.054l-4.416 10.817a3.285 3.285 0 0 1-1.129 1.404 2.782 2.782 0 0 1-1.626.513z"/>
    <circle cx="145.731" cy="293.773" r="30.666" stroke="#fff" stroke-width="1.425"/>
    <path fill="#fff" fill-rule="evenodd" d="M145.733 276.658c-5.065 0-9.188 4.119-9.188 9.183 0 2.453.717 5.522 2.2 8.07.439.755.957 1.469 1.548 2.1-.047.366-.121.659-.203.845-.099.223-.168.267-.234.291-.929.35-3.431.554-5.793 1.292-2.364.738-4.788 2.197-5.429 5.178l-.001-.001a.779.779 0 0 0 .24.741c9.291 8.392 24.427 8.392 33.717 0a.779.779 0 0 0 .24-.741c-.641-2.98-3.065-4.439-5.429-5.178-2.363-.739-4.865-.941-5.791-1.292h-.001c-.125-.047-.199-.109-.304-.31-.084-.163-.161-.415-.216-.74a11.538 11.538 0 0 0 1.627-2.185c1.483-2.55 2.2-5.617 2.2-8.07 0-5.064-4.12-9.183-9.183-9.183z" clip-rule="evenodd"/>
    <path fill="#fff" d="M124.386 171.42h-1.506l-3.206-7.976h1.506l2.453 5.956 2.454-5.956h1.506l-3.207 7.976zm5.092-1.598c.365.365.825.548 1.381.548.555 0 1.011-.183 1.369-.548.365-.373.548-.852.548-1.438 0-.585-.183-1.061-.548-1.426-.358-.373-.814-.559-1.369-.559-.556 0-1.016.186-1.381.559-.357.365-.536.841-.536 1.426 0 .586.179 1.065.536 1.438zm3.663.787c-.609.601-1.369.902-2.282.902s-1.674-.301-2.282-.902c-.609-.608-.913-1.35-.913-2.225 0-.874.304-1.612.913-2.213.608-.609 1.369-.913 2.282-.913s1.673.304 2.282.913c.608.601.913 1.339.913 2.213 0 .875-.305 1.617-.913 2.225zm3.644.811h-1.278v-6.071h1.278v6.071zm-1.198-7.28a.78.78 0 0 1-.24-.571c0-.22.08-.411.24-.57.159-.16.35-.24.57-.24a.78.78 0 0 1 .571.24.78.78 0 0 1 .239.57c0 .221-.08.411-.239.571a.782.782 0 0 1-.571.239.78.78 0 0 1-.57-.239zm5.744 7.371a3.076 3.076 0 0 1-2.18-.856c-.608-.578-.912-1.331-.912-2.259 0-.928.315-1.681.947-2.259.639-.586 1.415-.879 2.327-.879.913 0 1.685.316 2.317.947l-.753.924c-.525-.456-1.054-.684-1.586-.684-.533 0-.997.178-1.392.536-.388.35-.582.806-.582 1.369 0 .555.194 1.027.582 1.415.387.388.863.582 1.426.582.57 0 1.107-.259 1.609-.776l.753.822c-.738.745-1.59 1.118-2.556 1.118zm9.53-2.567h-4.759c.031.441.232.798.605 1.072.373.266.799.399 1.278.399.761 0 1.339-.239 1.735-.718l.73.798c-.654.677-1.506 1.016-2.556 1.016-.852 0-1.579-.282-2.18-.844-.593-.571-.89-1.332-.89-2.283 0-.958.305-1.719.913-2.282a3.057 3.057 0 0 1 2.145-.844c.83 0 1.533.251 2.111.753.579.494.868 1.179.868 2.054v.879zm-4.759-1.005h3.481c0-.509-.16-.901-.48-1.175-.319-.274-.715-.411-1.186-.411-.464 0-.883.145-1.255.434-.373.281-.56.666-.56 1.152zm11.988 3.572a3.073 3.073 0 0 1-2.179-.856c-.609-.578-.913-1.331-.913-2.259 0-.928.315-1.681.947-2.259.639-.586 1.415-.879 2.328-.879.912 0 1.685.316 2.316.947l-.753.924c-.525-.456-1.054-.684-1.586-.684-.533 0-.997.178-1.392.536-.388.35-.582.806-.582 1.369 0 .555.194 1.027.582 1.415.388.388.863.582 1.426.582.571 0 1.107-.259 1.609-.776l.753.822c-.738.745-1.59 1.118-2.556 1.118zm8.755-.091h-1.164v-.811c-.502.601-1.175.902-2.02.902-.631 0-1.156-.179-1.574-.536-.411-.358-.616-.833-.616-1.427 0-.601.22-1.049.661-1.346.442-.297 1.039-.445 1.792-.445h1.654v-.228c0-.807-.448-1.21-1.346-1.21-.563 0-1.149.205-1.757.616l-.571-.798a3.93 3.93 0 0 1 2.51-.879c.716 0 1.297.182 1.746.548.457.357.685.924.685 1.7v3.914zm-1.278-2.26v-.513h-1.438c-.92 0-1.38.289-1.38.867 0 .297.114.525.342.685.228.152.544.228.947.228.411 0 .768-.114 1.073-.342.304-.229.456-.537.456-.925zm4.335 2.26h-1.278v-8.467h1.278v8.467zm3.131 0h-1.278v-8.467h1.278v8.467zM136.979 217.284c-.312.548-.468 1.267-.468 2.157 0 .89.156 1.609.468 2.156.32.548.814.822 1.484.822.669 0 1.156-.27 1.46-.81.312-.548.468-1.271.468-2.168 0-.898-.156-1.617-.468-2.157-.304-.548-.791-.821-1.46-.821-.67 0-1.164.273-1.484.821zm-.958 5.169c-.54-.753-.81-1.757-.81-3.012 0-1.255.27-2.256.81-3.001.54-.753 1.354-1.13 2.442-1.13 1.087 0 1.901.377 2.442 1.13.54.745.81 1.746.81 3.001s-.27 2.259-.81 3.012c-.541.746-1.355 1.118-2.442 1.118-1.088 0-1.902-.372-2.442-1.118zm7.433.867a.846.846 0 0 1-.239-.604.81.81 0 0 1 .239-.594.827.827 0 0 1 .605-.251c.236 0 .438.084.605.251a.79.79 0 0 1 .251.594.825.825 0 0 1-.251.604.821.821 0 0 1-.605.251.823.823 0 0 1-.605-.251zm0-2.795a.848.848 0 0 1-.239-.605c0-.236.08-.434.239-.593a.823.823 0 0 1 .605-.251c.236 0 .438.083.605.251a.786.786 0 0 1 .251.593.827.827 0 0 1-.251.605.825.825 0 0 1-.605.251.827.827 0 0 1-.605-.251zm5.363-.616c.54-.548.924-.978 1.153-1.29.228-.312.342-.627.342-.947 0-.319-.122-.589-.365-.81-.244-.228-.552-.342-.925-.342-.654 0-1.198.334-1.631 1.004l-1.084-.628c.35-.525.734-.92 1.152-1.186.426-.267.97-.4 1.632-.4.669 0 1.255.213 1.757.639.502.419.753.993.753 1.723 0 .411-.106.803-.319 1.175-.213.373-.605.852-1.176 1.438l-1.871 1.906h3.617v1.289h-5.454v-1.141l2.419-2.43zm9.184-4.416v1.221h-3.366v1.962a2.35 2.35 0 0 1 1.141-.274c.745 0 1.388.225 1.928.674.54.448.81 1.057.81 1.825 0 .769-.281 1.408-.844 1.917-.563.502-1.255.753-2.077.753-1.072 0-1.928-.357-2.567-1.072l.719-.982c.061.061.141.134.24.217.106.084.319.198.639.343.319.136.669.205 1.049.205a1.72 1.72 0 0 0 1.039-.342c.312-.229.467-.559.467-.993 0-.441-.167-.78-.502-1.016-.327-.243-.745-.365-1.255-.365-.502 0-.981.126-1.437.377l-.571-.616v-3.834h4.587z"/>
    <circle cx="76.046" cy="76.046" r="76.046" fill="#C73434"/>
    <path fill="#fff" d="M26.109 85.051h-4.287V75.26h3.81c.664 0 1.233.08 1.71.239.485.158.845.373 1.078.644.449.504.673 1.074.673 1.709 0 .766-.243 1.335-.729 1.709-.177.13-.299.215-.364.252l-.35.154c.607.13 1.088.406 1.443.827.364.41.546.924.546 1.54 0 .682-.233 1.285-.7 1.808-.551.607-1.495.91-2.83.91zm-2.634-5.73h2.102c1.195 0 1.793-.406 1.793-1.218 0-.467-.145-.803-.435-1.009-.29-.205-.737-.308-1.344-.308h-2.116v2.536zm0 4.203h2.592c.607 0 1.07-.093 1.387-.28.327-.196.49-.56.49-1.093 0-.868-.696-1.302-2.087-1.302h-2.382v2.675zm14.948-1.513h-5.841c.037.542.284.981.742 1.317.458.327.98.49 1.569.49.934 0 1.644-.294 2.13-.882l.896.98c-.803.832-1.85 1.247-3.138 1.247-1.046 0-1.938-.345-2.676-1.036-.728-.7-1.092-1.635-1.092-2.802 0-1.177.373-2.11 1.12-2.802a3.752 3.752 0 0 1 2.634-1.036c1.018 0 1.882.308 2.591.924.71.607 1.065 1.448 1.065 2.522v1.078zm-5.841-1.232h4.272c0-.626-.196-1.107-.588-1.443-.392-.336-.878-.504-1.457-.504a2.45 2.45 0 0 0-1.541.532c-.458.345-.686.817-.686 1.415zm11.054 4.272h-1.793L39.266 77.6h1.625l1.849 5.631 1.85-5.631h1.624l1.85 5.631 1.848-5.631h1.625L48.96 85.05h-1.793l-1.765-5.099-1.766 5.1zm15.259 0h-1.429v-.994c-.616.737-1.443 1.106-2.48 1.106-.775 0-1.419-.22-1.933-.658-.504-.439-.756-1.023-.756-1.751 0-.738.27-1.289.812-1.653.542-.364 1.275-.546 2.2-.546h2.03v-.28c0-.99-.55-1.486-1.652-1.486-.691 0-1.41.253-2.157.757l-.7-.98a4.825 4.825 0 0 1 3.081-1.08c.878 0 1.592.225 2.143.673.56.439.84 1.135.84 2.087v4.805zm-1.57-2.773v-.63h-1.764c-1.13 0-1.695.354-1.695 1.064 0 .364.14.644.42.84.28.187.668.28 1.163.28.504 0 .943-.14 1.317-.42.373-.28.56-.658.56-1.134zm7.662-3.208c-.775 0-1.358.252-1.75.756-.393.504-.59 1.181-.59 2.031v3.194H61.08V77.6h1.569v1.499c.252-.467.593-.85 1.023-1.15a2.514 2.514 0 0 1 1.386-.461l.014 1.583h-.084zm8.594 2.941H67.74c.037.542.284.981.742 1.317.457.327.98.49 1.569.49.934 0 1.644-.294 2.13-.882l.896.98c-.803.832-1.85 1.247-3.138 1.247-1.046 0-1.938-.345-2.676-1.036-.728-.7-1.093-1.635-1.093-2.802 0-1.177.374-2.11 1.121-2.802a3.752 3.752 0 0 1 2.634-1.036c1.018 0 1.882.308 2.591.924.71.607 1.065 1.448 1.065 2.522v1.078zM67.74 80.78h4.272c0-.626-.196-1.107-.588-1.443-.393-.336-.878-.504-1.457-.504a2.45 2.45 0 0 0-1.541.532c-.458.345-.686.817-.686 1.415zm13.344-1.92v3.783c0 .355.093.64.28.854.186.206.448.309.784.309s.659-.164.967-.49l.644 1.106c-.55.495-1.162.742-1.835.742a2.38 2.38 0 0 1-1.709-.686c-.467-.467-.7-1.093-.7-1.877v-3.74h-.939v-1.261h.939v-2.34h1.569v2.34h1.96v1.26h-1.96zm5.49 2.158v4.034h-1.569v-10.38h1.57v4.287c.224-.458.56-.818 1.008-1.08a2.917 2.917 0 0 1 1.471-.391c.84 0 1.517.257 2.031.77.523.514.785 1.256.785 2.227v4.567H90.3v-4.09c0-1.373-.569-2.06-1.708-2.06-.542 0-1.014.183-1.415.547-.402.355-.603.878-.603 1.569zm9.057 4.034h-1.57V77.6h1.57v7.452zm-1.471-8.937a.956.956 0 0 1-.294-.7c0-.271.098-.505.294-.701a.957.957 0 0 1 .7-.294c.271 0 .505.098.7.294.197.196.295.43.295.7 0 .271-.098.505-.294.7a.956.956 0 0 1-.7.295.956.956 0 0 1-.701-.294zm9.055 6.71c0 .71-.257 1.28-.77 1.709-.514.42-1.172.63-1.976.63a5.354 5.354 0 0 1-1.695-.294 5.088 5.088 0 0 1-1.54-.826l.756-1.22c.868.655 1.709.982 2.521.982.355 0 .635-.08.841-.239a.783.783 0 0 0 .308-.63c0-.374-.495-.71-1.485-1.009a1.707 1.707 0 0 0-.168-.056c-1.55-.42-2.325-1.12-2.325-2.101 0-.691.266-1.242.798-1.653.542-.42 1.242-.63 2.101-.63.86 0 1.672.252 2.438.756l-.588 1.163a3.513 3.513 0 0 0-1.976-.603c-.373 0-.677.07-.91.21a.646.646 0 0 0-.35.603c0 .243.121.42.364.532.168.084.401.164.7.238.308.075.579.15.813.225.233.074.457.158.672.252.224.093.462.224.715.392.504.336.756.86.756 1.569zm8.927 2.34c-1.036 0-1.928-.35-2.675-1.051-.747-.71-1.121-1.635-1.121-2.774 0-1.14.388-2.064 1.163-2.774.784-.719 1.737-1.078 2.857-1.078 1.121 0 2.069.387 2.844 1.162l-.924 1.135c-.645-.56-1.294-.84-1.948-.84-.653 0-1.223.219-1.709.658-.476.43-.714.99-.714 1.681 0 .682.238 1.26.714 1.737.477.476 1.06.714 1.751.714.701 0 1.359-.317 1.976-.952l.924 1.008c-.906.916-1.952 1.373-3.138 1.373zm10.748-.113h-1.428v-.994c-.617.737-1.443 1.106-2.48 1.106-.775 0-1.419-.22-1.933-.658-.504-.439-.757-1.023-.757-1.751 0-.738.271-1.289.813-1.653.542-.364 1.275-.546 2.199-.546h2.032v-.28c0-.99-.551-1.486-1.653-1.486-.692 0-1.411.253-2.158.757l-.7-.98a4.825 4.825 0 0 1 3.082-1.08c.878 0 1.592.225 2.143.673.56.439.84 1.135.84 2.087v4.805zm-1.568-2.773v-.63h-1.766c-1.13 0-1.695.354-1.695 1.064 0 .364.141.644.421.84.28.187.667.28 1.162.28.505 0 .944-.14 1.317-.42.374-.28.561-.658.561-1.134zm5.322 2.773h-1.569V74.657h1.569v10.394zm3.844 0h-1.569V74.657h1.569v10.394zm-95.96 19.98v4.035H32.96v-7.453h1.57v1.359c.224-.458.56-.817 1.008-1.079a2.921 2.921 0 0 1 1.471-.392c1.177 0 1.975.486 2.395 1.457.738-.971 1.658-1.457 2.76-1.457.84 0 1.518.257 2.031.771.523.513.785 1.256.785 2.227v4.567h-1.57v-4.091c0-1.373-.569-2.059-1.708-2.059-.532 0-1 .173-1.401.518-.392.337-.598.831-.616 1.485v4.147h-1.57v-4.091c0-.71-.125-1.228-.378-1.555-.252-.336-.649-.504-1.19-.504-.542 0-1.014.182-1.415.546-.402.355-.602.878-.602 1.569zm14.2 4.035H47.16v-7.453h1.57v7.453zm-1.47-8.938a.955.955 0 0 1-.295-.7c0-.27.098-.504.294-.7a.956.956 0 0 1 .701-.295c.27 0 .504.098.7.294.197.197.295.43.295.7 0 .272-.099.505-.295.701a.957.957 0 0 1-.7.294.957.957 0 0 1-.7-.294zm10.638 1.485v6.5c0 1.317-.36 2.302-1.079 2.956-.71.663-1.625.994-2.746.994-1.12 0-2.133-.35-3.04-1.05l.743-1.191c.728.551 1.462.827 2.2.827.747 0 1.335-.192 1.764-.575.44-.383.659-.994.659-1.835v-.952c-.234.439-.57.789-1.009 1.05-.43.262-.915.392-1.457.392-.99 0-1.802-.345-2.437-1.036-.635-.691-.953-1.55-.953-2.578 0-1.027.318-1.886.953-2.577.635-.691 1.443-1.037 2.423-1.037.99 0 1.793.406 2.41 1.219v-1.107h1.569zm-5.814 3.446c0 .607.187 1.135.56 1.583.383.439.892.659 1.527.659.645 0 1.163-.215 1.555-.645.402-.429.603-.962.603-1.597 0-.644-.201-1.186-.603-1.625-.401-.448-.92-.672-1.554-.672-.636 0-1.145.229-1.527.686-.374.458-.56.995-.56 1.611zm9.656-.028v4.035H60.17v-10.38h1.57v4.286c.223-.458.56-.817 1.008-1.079a2.921 2.921 0 0 1 1.47-.392c.841 0 1.518.257 2.032.771.523.513.784 1.256.784 2.227v4.567h-1.569v-4.091c0-1.373-.57-2.059-1.709-2.059-.541 0-1.013.182-1.414.546-.402.355-.603.878-.603 1.569zm9.42-2.157v3.782c0 .355.094.64.28.855.188.205.45.308.785.308.337 0 .659-.163.967-.49l.644 1.106c-.55.495-1.162.743-1.835.743a2.38 2.38 0 0 1-1.709-.687c-.467-.467-.7-1.092-.7-1.877v-3.74h-.939v-1.261h.939v-2.34h1.569v2.34h1.96v1.261h-1.96zm13.804 6.192h-1.428v-.995c-.617.738-1.443 1.107-2.48 1.107-.775 0-1.42-.22-1.933-.659-.504-.439-.757-1.022-.757-1.751 0-.737.271-1.288.813-1.653.541-.364 1.275-.546 2.2-.546h2.03v-.28c0-.99-.55-1.485-1.653-1.485-.69 0-1.41.252-2.157.756l-.7-.98a4.826 4.826 0 0 1 3.081-1.079c.878 0 1.593.224 2.144.673.56.438.84 1.134.84 2.087v4.805zm-1.569-2.774v-.63h-1.765c-1.13 0-1.695.355-1.695 1.064 0 .365.14.645.42.841.28.187.668.28 1.163.28.505 0 .944-.14 1.317-.42.374-.28.56-.659.56-1.135zm5.605-3.418v3.782c0 .355.093.64.28.855.186.205.448.308.784.308s.659-.163.967-.49l.644 1.106c-.55.495-1.163.743-1.835.743a2.38 2.38 0 0 1-1.709-.687c-.467-.467-.7-1.092-.7-1.877v-3.74h-.939v-1.261h.939v-2.34h1.569v2.34h1.96v1.261h-1.96zm11.674.21c-.775 0-1.359.252-1.751.757-.392.504-.589 1.181-.589 2.031v3.194h-1.568v-7.453h1.569v1.499c.252-.467.593-.85 1.022-1.149.44-.298.901-.453 1.387-.462l.014 1.583h-.084zm3.228 5.982h-1.569v-7.453h1.569v7.453zm-1.471-8.938a.956.956 0 0 1-.294-.7c0-.27.098-.504.294-.7a.959.959 0 0 1 .701-.295c.271 0 .504.098.7.294.196.197.294.43.294.7 0 .272-.098.505-.294.701a.955.955 0 0 1-.7.294.96.96 0 0 1-.701-.294zm9.056 6.71c0 .71-.257 1.28-.771 1.709-.513.421-1.172.631-1.975.631a5.354 5.354 0 0 1-1.695-.294 5.104 5.104 0 0 1-1.541-.827l.757-1.219c.868.654 1.709.981 2.521.981.355 0 .635-.079.841-.238a.783.783 0 0 0 .308-.631c0-.373-.495-.709-1.485-1.008a1.686 1.686 0 0 0-.168-.056c-1.551-.42-2.326-1.121-2.326-2.101 0-.692.267-1.243.799-1.653.541-.421 1.242-.631 2.101-.631s1.672.252 2.438.757l-.589 1.162a3.513 3.513 0 0 0-1.975-.602c-.374 0-.677.07-.911.21a.647.647 0 0 0-.35.602c0 .243.122.421.364.533.169.084.402.163.701.238.308.075.579.149.812.224.234.075.458.159.673.252a4.3 4.3 0 0 1 .714.392c.505.337.757.86.757 1.569zm3.346 2.228h-1.569V98.671h1.569v6.108l3.026-3.166h2.017l-2.83 2.956 3.04 4.497h-1.905l-2.214-3.264-1.134 1.148v2.116zM76.046 36.022c-6.631 0-12.007 5.375-12.007 12.007s5.376 12.007 12.007 12.007c6.631 0 12.007-5.375 12.007-12.007s-5.376-12.007-12.007-12.007zm0 19.866a1.747 1.747 0 1 1 0-3.494 1.747 1.747 0 0 1 0 3.494zm1.896-13.5l-.674 7.91a1.222 1.222 0 1 1-2.445 0l-.673-7.91a1.921 1.921 0 1 1 3.817-.297c0 .101-.01.2-.025.297z"/>
</svg>
