<svg xmlns="http://www.w3.org/2000/svg" width="593" height="511" fill="none" viewBox="0 0 593 511">
    <rect width="89" height="4" x="317.557" y="146.041" fill="#C73434" rx="2" transform="rotate(-24.144 317.557 146.041)"/>
    <rect width="114" height="4" x="286.373" y="174.265" fill="#C73434" rx="2" transform="rotate(-24.144 286.373 174.265)"/>
    <rect width="54" height="4" x="229.797" y="199.625" fill="#C73434" rx="2" transform="rotate(-24.144 229.797 199.625)"/>
    <rect width="54" height="4" x="260.98" y="171.401" fill="#C73434" rx="2" transform="rotate(-24.144 260.98 171.401)"/>
    <rect width="54" height="4" x="144.143" y="372.811" fill="#C73434" rx="2" transform="rotate(-24.144 144.143 372.811)"/>
    <rect width="76" height="4" x="153.146" y="233.984" fill="#C73434" rx="2" transform="rotate(-24.144 153.146 233.984)"/>
    <rect width="118" height="4" x="274.353" y="193.899" fill="#C73434" rx="2" transform="rotate(-24.144 274.353 193.899)"/>
    <rect width="60" height="4" x="212.301" y="221.714" fill="#C73434" rx="2" transform="rotate(-24.144 212.301 221.714)"/>
    <rect width="88" height="4" x="124.699" y="260.981" fill="#C73434" rx="2" transform="rotate(-24.144 124.699 260.981)"/>
    <rect width="188" height="4" x="205.756" y="238.894" fill="#C73434" rx="2" transform="rotate(-24.144 205.756 238.894)"/>
    <rect width="44" height="4" x="330.613" y="197.173" fill="#C73434" rx="2" transform="rotate(-24.144 330.613 197.173)"/>
    <rect width="90" height="4" x="241.187" y="237.258" fill="#C73434" rx="2" transform="rotate(-24.144 241.187 237.258)"/>
    <rect width="90" height="4" x="116.329" y="278.979" fill="#C73434" rx="2" transform="rotate(-24.144 116.329 278.979)"/>
    <rect width="44" height="4" x="193.735" y="258.528" fill="#C73434" rx="2" transform="rotate(-24.144 193.735 258.528)"/>
    <rect width="155" height="4" x="237.882" y="251.89" fill="#C73434" rx="2" transform="rotate(-24.144 237.882 251.89)"/>
    <rect width="155" height="4" x="88.228" y="318.971" fill="#C73434" rx="2" transform="rotate(-24.144 88.228 318.971)"/>
    <rect width="82" height="4" x="301.191" y="236.662" fill="#C73434" rx="2" transform="rotate(-24.144 301.191 236.662)"/>
    <rect width="82" height="4" x="108.429" y="349.368" fill="#C73434" rx="2" transform="rotate(-24.144 108.429 349.368)"/>
    <rect width="82" height="4" x="219.065" y="273.475" fill="#C73434" rx="2" transform="rotate(-24.144 219.065 273.475)"/>
    <rect width="82" height="4" x="273.624" y="380.523" fill="#C73434" rx="2" transform="rotate(-24.144 273.624 380.523)"/>
    <rect width="63" height="4" x="154.276" y="302.516" fill="#C73434" rx="2" transform="rotate(-24.144 154.276 302.516)"/>
    <rect width="63" height="4" x="231.523" y="359.943" fill="#C73434" rx="2" transform="rotate(-24.144 231.523 359.943)"/>
    <rect width="63" height="4" x="215.789" y="393.297" fill="#C73434" rx="2" transform="rotate(-24.144 215.789 393.297)"/>
    <rect width="26" height="4" x="359.938" y="223.479" fill="#C73434" rx="2" transform="rotate(-24.144 359.938 223.479)"/>
    <rect width="26" height="4" x="215.54" y="314.506" fill="#C73434" rx="2" transform="rotate(-24.144 215.54 314.506)"/>
    <rect width="26" height="4" x="285.237" y="296.415" fill="#C73434" rx="2" transform="rotate(-24.144 285.237 296.415)"/>
    <rect width="26" height="4" x="200.498" y="373.851" fill="#C73434" rx="2" transform="rotate(-24.144 200.498 373.851)"/>
    <rect width="26" height="4" x="274.066" y="327.724" fill="#C73434" rx="2" transform="rotate(-24.144 274.066 327.724)"/>
    <rect width="26" height="4" x="237.344" y="370.485" fill="#C73434" rx="2" transform="rotate(-24.144 237.344 370.485)"/>
    <rect width="166" height="4" x="201.16" y="294.651" fill="#C73434" rx="2" transform="rotate(-24.144 201.16 294.651)"/>
    <rect width="166" height="4" x="102.201" y="242.573" fill="#C73434" rx="2" transform="rotate(-24.144 102.201 242.573)"/>
    <rect width="166" height="4" x="123.721" y="368.814" fill="#C73434" rx="2" transform="rotate(-24.144 123.721 368.814)"/>
    <rect width="48" height="4" x="150.06" y="317.557" fill="#C73434" rx="2" transform="rotate(-24.144 150.06 317.557)"/>
    <rect width="48" height="4" x="164.438" y="337.412" fill="#C73434" rx="2" transform="rotate(-24.144 164.438 337.412)"/>
    <rect width="48" height="4" x="142.634" y="281.434" fill="#C73434" rx="2" transform="rotate(-24.144 142.634 281.434)"/>
    <rect width="151.196" height="4" x="247.132" y="287.195" fill="#C73434" rx="2" transform="rotate(-24.144 247.132 287.195)"/>
    <rect width="54" height="4" x="190.556" y="312.555" fill="#C73434" rx="2" transform="rotate(-24.144 190.556 312.555)"/>
    <rect width="54" height="4" x="246.565" y="300.599" fill="#C73434" rx="2" transform="rotate(-24.144 246.565 300.599)"/>
    <rect width="97" height="4" x="303.142" y="275.239" fill="#C73434" rx="2" transform="rotate(-24.144 303.142 275.239)"/>
    <rect width="86" height="4" x="316.263" y="282.508" fill="#C73434" rx="2" transform="rotate(-24.144 316.263 282.508)"/>
    <rect width="86" height="4" x="200.719" y="347.451" fill="#C73434" rx="2" transform="rotate(-24.144 200.719 347.451)"/>
    <rect width="136" height="4" x="286.495" y="309.002" fill="#C73434" rx="2" transform="rotate(-24.144 286.495 309.002)"/>
    <rect width="115" height="4" x="305.092" y="313.816" fill="#C73434" rx="2" transform="rotate(-24.144 305.092 313.816)"/>
    <rect width="115" height="4" x="280.578" y="364.256" fill="#C73434" rx="2" transform="rotate(-24.144 280.578 364.256)"/>
    <rect width="136" height="4" x="296.312" y="330.902" fill="#C73434" rx="2" transform="rotate(-24.144 296.312 330.902)"/>
    <rect width="182" height="4" x="268.37" y="356.578" fill="#C73434" rx="2" transform="rotate(-24.144 268.37 356.578)"/>
    <rect width="68" height="4" x="392.818" y="313.945" fill="#C73434" rx="2" transform="rotate(-24.144 392.818 313.945)"/>
    <rect width="68" height="4" x="204.715" y="358.81" fill="#C73434" rx="2" transform="rotate(-24.144 204.715 358.81)"/>
    <rect width="138" height="4" x="355.751" y="343.71" fill="#C73434" rx="2" transform="rotate(-24.144 355.751 343.71)"/>
    <rect width="279" height="507" x="2" y="2" fill="#fff" stroke="#1A2643" stroke-width="4" rx="32"/>
    <rect width="259" height="487" x="12" y="12" fill="#1A2643" rx="30"/>
    <circle cx="193" cy="32" r="4" fill="#fff"/>
    <rect width="96" height="4" x="85" y="30" fill="#fff" rx="2"/>
    <circle cx="142" cy="403" r="32" fill="#C73434"/>
    <path fill="#fff" d="M126.633 407.461l5.487-.654c1.127-.129 1.945-1.139 1.861-2.279a52.991 52.991 0 0 1-.142-2.187c-.008-1.877 3.526-2.527 7.627-2.538 4.101-.012 7.176.673 7.157 2.532-.014.227-.047 1.026-.132 2.186-.068 1.131.72 2.131 1.846 2.275l5.484.632c.947.117 1.858-.448 2.213-1.335.466-1.213.719-2.665.736-3.435-.006-4.448-7.98-8.467-17.665-8.443-9.637.01-17.383 4.039-17.407 8.47.013.788.259 2.255.73 3.464.357.868 1.275 1.438 2.205 1.312zM56.319 118.224v2.664h-8.952v4.44h8.04v2.52h-8.04v4.488h9.24V135H44.535v-16.776h11.784zM62.542 135h-2.688v-17.808h2.688V135zm15.778-5.208H68.312c.064.928.488 1.68 1.272 2.256.784.56 1.68.84 2.688.84 1.6 0 2.816-.504 3.648-1.512l1.536 1.68c-1.376 1.424-3.168 2.136-5.376 2.136-1.792 0-3.32-.592-4.584-1.776-1.248-1.2-1.872-2.8-1.872-4.8 0-2.016.64-3.616 1.92-4.8 1.28-1.184 2.784-1.776 4.512-1.776 1.744 0 3.224.528 4.44 1.584 1.216 1.04 1.824 2.48 1.824 4.32v1.848zm-10.008-2.112h7.32c0-1.072-.336-1.896-1.008-2.472-.672-.576-1.504-.864-2.496-.864a4.2 4.2 0 0 0-2.64.912c-.784.592-1.176 1.4-1.176 2.424zm16.182-6.504v1.056h3.36v2.16h-3.36V135h-2.688v-10.608h-1.608v-2.16h1.608v-.984c0-1.344.4-2.408 1.2-3.192.816-.8 1.792-1.2 2.928-1.2 1.152 0 2.2.424 3.144 1.272l-1.104 1.896c-.528-.56-1.08-.84-1.656-.84-.576 0-1.024.184-1.344.552-.32.352-.48.832-.48 1.44zm17.826 8.616H92.312c.064.928.488 1.68 1.272 2.256.784.56 1.68.84 2.688.84 1.6 0 2.816-.504 3.648-1.512l1.536 1.68c-1.376 1.424-3.168 2.136-5.376 2.136-1.792 0-3.32-.592-4.584-1.776-1.248-1.2-1.872-2.8-1.872-4.8 0-2.016.64-3.616 1.92-4.8 1.28-1.184 2.784-1.776 4.512-1.776 1.744 0 3.224.528 4.44 1.584 1.216 1.04 1.824 2.48 1.824 4.32v1.848zm-10.008-2.112h7.32c0-1.072-.336-1.896-1.008-2.472-.672-.576-1.504-.864-2.496-.864a4.2 4.2 0 0 0-2.64.912c-.784.592-1.176 1.4-1.176 2.424zm15.652.408V135h-2.688v-12.768h2.688v2.328a4.81 4.81 0 0 1 4.248-2.52c1.44 0 2.6.44 3.48 1.32.896.88 1.344 2.152 1.344 3.816V135h-2.688v-7.008c0-2.352-.976-3.528-2.928-3.528-.928 0-1.736.312-2.424.936-.688.608-1.032 1.504-1.032 2.688zM126 135.192c-1.616 0-3.024-.608-4.224-1.824-1.2-1.216-1.8-2.816-1.8-4.8s.616-3.568 1.848-4.752c1.232-1.184 2.696-1.776 4.392-1.776 1.712 0 3.088.72 4.128 2.16v-7.008h2.688V135h-2.688v-1.92c-.992 1.408-2.44 2.112-4.344 2.112zm-3.336-6.504c0 1.216.392 2.208 1.176 2.976.784.768 1.704 1.152 2.76 1.152 1.056 0 1.952-.384 2.688-1.152.736-.784 1.104-1.784 1.104-3s-.368-2.232-1.104-3.048c-.736-.816-1.64-1.224-2.712-1.224-1.072 0-1.992.408-2.76 1.224-.768.816-1.152 1.84-1.152 3.072zm26.287-8.256c-.816 0-1.488.168-2.016.504-.528.336-.792.848-.792 1.536 0 .672.264 1.192.792 1.56.528.352 1.648.736 3.36 1.152 1.728.416 3.024 1 3.888 1.752.88.752 1.32 1.864 1.32 3.336 0 1.456-.552 2.64-1.656 3.552-1.104.912-2.552 1.368-4.344 1.368-2.624 0-4.952-.904-6.984-2.712l1.776-2.136c1.696 1.472 3.456 2.208 5.28 2.208.912 0 1.632-.192 2.16-.576.544-.4.816-.92.816-1.56 0-.656-.256-1.16-.768-1.512-.496-.368-1.36-.696-2.592-.984-1.232-.304-2.168-.576-2.808-.816a6.595 6.595 0 0 1-1.704-.984c-.992-.752-1.488-1.904-1.488-3.456s.56-2.744 1.68-3.576c1.136-.848 2.536-1.272 4.2-1.272 1.072 0 2.136.176 3.192.528 1.056.352 1.968.848 2.736 1.488l-1.512 2.136c-.496-.448-1.168-.816-2.016-1.104a7.8 7.8 0 0 0-2.52-.432zm21.549 9.36h-10.008c.064.928.488 1.68 1.272 2.256.784.56 1.68.84 2.688.84 1.6 0 2.816-.504 3.648-1.512l1.536 1.68c-1.376 1.424-3.168 2.136-5.376 2.136-1.792 0-3.32-.592-4.584-1.776-1.248-1.2-1.872-2.8-1.872-4.8 0-2.016.64-3.616 1.92-4.8 1.28-1.184 2.784-1.776 4.512-1.776 1.744 0 3.224.528 4.44 1.584 1.216 1.04 1.824 2.48 1.824 4.32v1.848zm-10.008-2.112h7.32c0-1.072-.336-1.896-1.008-2.472-.672-.576-1.504-.864-2.496-.864a4.2 4.2 0 0 0-2.64.912c-.784.592-1.176 1.4-1.176 2.424zm18.628 7.512c-1.776 0-3.304-.6-4.584-1.8-1.28-1.216-1.92-2.8-1.92-4.752s.664-3.536 1.992-4.752c1.344-1.232 2.976-1.848 4.896-1.848s3.544.664 4.872 1.992l-1.584 1.944c-1.104-.96-2.216-1.44-3.336-1.44-1.12 0-2.096.376-2.928 1.128-.816.736-1.224 1.696-1.224 2.88 0 1.168.408 2.16 1.224 2.976.816.816 1.816 1.224 3 1.224 1.2 0 2.328-.544 3.384-1.632l1.584 1.728c-1.552 1.568-3.344 2.352-5.376 2.352zm17.092-6.048v-6.912h2.688V135h-2.688v-2.328a4.758 4.758 0 0 1-1.8 1.848 4.698 4.698 0 0 1-2.448.672c-1.44 0-2.608-.44-3.504-1.32-.88-.88-1.32-2.152-1.32-3.816v-7.824h2.688v7.008c0 2.352.976 3.528 2.928 3.528.928 0 1.736-.304 2.424-.912.688-.624 1.032-1.528 1.032-2.712zm13.283-4.392c-1.328 0-2.328.432-3 1.296-.672.864-1.008 2.024-1.008 3.48V135h-2.688v-12.768h2.688v2.568a5.607 5.607 0 0 1 1.752-1.968c.752-.512 1.544-.776 2.376-.792l.024 2.712h-.144zM215.027 135h-2.688v-12.768h2.688V135zm-2.52-15.312a1.639 1.639 0 0 1-.504-1.2c0-.464.168-.864.504-1.2a1.639 1.639 0 0 1 1.2-.504c.464 0 .864.168 1.2.504.336.336.504.736.504 1.2 0 .464-.168.864-.504 1.2a1.639 1.639 0 0 1-1.2.504c-.464 0-.864-.168-1.2-.504zm9.729 4.704v6.48c0 .608.16 1.096.48 1.464.32.352.768.528 1.344.528.576 0 1.128-.28 1.656-.84l1.104 1.896c-.944.848-1.992 1.272-3.144 1.272-1.136 0-2.112-.392-2.928-1.176-.8-.8-1.2-1.872-1.2-3.216v-6.408h-1.608v-2.16h1.608v-4.008h2.688v4.008h3.36v2.16h-3.36zm8.328 15.696c-1.168 0-2.224-.424-3.168-1.272l1.224-2.184c.56.528 1.136.792 1.728.792.608 0 1.096-.216 1.464-.648.384-.432.576-.904.576-1.416 0-.224-1.72-4.6-5.16-13.128h2.88l3.816 9.408 3.816-9.408h2.88l-6.192 15.168c-.368.832-.896 1.488-1.584 1.968-.688.48-1.448.72-2.28.72z"/>
    <circle cx="141" cy="263" r="43" stroke="#fff" stroke-width="2"/>
    <path fill="#fff" fill-rule="evenodd" d="M141.002 239c-7.101 0-12.884 5.776-12.884 12.877 0 3.439 1.006 7.743 3.085 11.316a16.3 16.3 0 0 0 2.172 2.945c-.066.513-.171.924-.286 1.184-.138.313-.234.375-.328.409-1.302.49-4.811.776-8.122 1.811-3.315 1.036-6.714 3.081-7.613 7.261l-.002-.002c-.081.382.047.778.337 1.04 13.029 11.767 34.252 11.767 47.278 0 .29-.262.418-.658.337-1.04-.899-4.178-4.297-6.223-7.613-7.261-3.313-1.035-6.822-1.319-8.12-1.811h-.002c-.174-.066-.279-.153-.426-.434-.117-.228-.226-.582-.302-1.038a16.186 16.186 0 0 0 2.281-3.064c2.08-3.575 3.086-7.877 3.086-11.316 0-7.101-5.779-12.877-12.878-12.877z" clip-rule="evenodd"/>
    <path fill="#fff" d="M111.07 92h-2.112l-4.496-11.184h2.112l3.44 8.352 3.44-8.352h2.112L111.07 92zm7.14-2.24c.512.512 1.157.768 1.936.768.778 0 1.418-.256 1.92-.768.512-.523.768-1.195.768-2.016s-.256-1.488-.768-2c-.502-.523-1.142-.784-1.92-.784-.779 0-1.424.261-1.936.784-.502.512-.752 1.179-.752 2s.25 1.493.752 2.016zm5.136 1.104c-.854.843-1.92 1.264-3.2 1.264-1.28 0-2.347-.421-3.2-1.264-.854-.853-1.28-1.893-1.28-3.12s.426-2.261 1.28-3.104c.853-.853 1.92-1.28 3.2-1.28 1.28 0 2.346.427 3.2 1.28.853.843 1.28 1.877 1.28 3.104s-.427 2.267-1.28 3.12zM128.455 92h-1.792v-8.512h1.792V92zm-1.68-10.208a1.093 1.093 0 0 1-.336-.8c0-.31.112-.576.336-.8.224-.224.491-.336.8-.336.31 0 .576.112.8.336.224.224.336.49.336.8 0 .31-.112.576-.336.8-.224.224-.49.336-.8.336-.309 0-.576-.112-.8-.336zm8.055 10.336c-1.184 0-2.203-.4-3.056-1.2-.854-.81-1.28-1.867-1.28-3.168 0-1.301.442-2.357 1.328-3.168.896-.821 1.984-1.232 3.264-1.232 1.28 0 2.362.443 3.248 1.328l-1.056 1.296c-.736-.64-1.478-.96-2.224-.96-.747 0-1.398.25-1.952.752-.544.49-.816 1.13-.816 1.92a2.7 2.7 0 0 0 .816 1.984c.544.544 1.21.816 2 .816.8 0 1.552-.363 2.256-1.088l1.056 1.152c-1.035 1.045-2.23 1.568-3.584 1.568zm13.363-3.6h-6.672c.042.619.325 1.12.848 1.504.522.373 1.12.56 1.792.56 1.066 0 1.877-.336 2.432-1.008l1.024 1.12c-.918.95-2.112 1.424-3.584 1.424-1.195 0-2.214-.395-3.056-1.184-.832-.8-1.248-1.867-1.248-3.2 0-1.344.426-2.41 1.28-3.2.853-.79 1.856-1.184 3.008-1.184 1.162 0 2.149.352 2.96 1.056.81.693 1.216 1.653 1.216 2.88v1.232zm-6.672-1.408h4.88c0-.715-.224-1.264-.672-1.648-.448-.384-1.003-.576-1.664-.576-.651 0-1.238.203-1.76.608-.523.395-.784.933-.784 1.616zm16.809 5.008c-1.184 0-2.203-.4-3.056-1.2-.854-.81-1.28-1.867-1.28-3.168 0-1.301.442-2.357 1.328-3.168.896-.821 1.984-1.232 3.264-1.232 1.28 0 2.362.443 3.248 1.328l-1.056 1.296c-.736-.64-1.478-.96-2.224-.96-.747 0-1.398.25-1.952.752-.544.49-.816 1.13-.816 1.92a2.7 2.7 0 0 0 .816 1.984c.544.544 1.21.816 2 .816.8 0 1.552-.363 2.256-1.088l1.056 1.152c-1.035 1.045-2.23 1.568-3.584 1.568zM170.606 92h-1.632v-1.136c-.704.843-1.648 1.264-2.832 1.264-.885 0-1.621-.25-2.208-.752-.576-.501-.864-1.168-.864-2 0-.843.309-1.472.928-1.888.619-.416 1.456-.624 2.512-.624h2.32v-.32c0-1.13-.629-1.696-1.888-1.696-.789 0-1.611.288-2.464.864l-.8-1.12a5.512 5.512 0 0 1 3.52-1.232c1.003 0 1.819.256 2.448.768.64.501.96 1.296.96 2.384V92zm-1.792-3.168v-.72h-2.016c-1.291 0-1.936.405-1.936 1.216 0 .416.16.736.48.96.32.213.763.32 1.328.32.576 0 1.077-.16 1.504-.48.427-.32.64-.752.64-1.296zM174.893 92h-1.792V80.128h1.792V92zm4.39 0h-1.792V80.128h1.792V92zM128.729 156.312c-.438.768-.656 1.776-.656 3.024s.218 2.256.656 3.024c.448.768 1.141 1.152 2.08 1.152.938 0 1.621-.379 2.048-1.136.437-.768.656-1.781.656-3.04 0-1.259-.219-2.267-.656-3.024-.427-.768-1.11-1.152-2.048-1.152-.939 0-1.632.384-2.08 1.152zm-1.344 7.248c-.758-1.056-1.136-2.464-1.136-4.224 0-1.76.378-3.163 1.136-4.208.757-1.056 1.898-1.584 3.424-1.584 1.525 0 2.666.528 3.424 1.584.757 1.045 1.136 2.448 1.136 4.208 0 1.76-.379 3.168-1.136 4.224-.758 1.045-1.899 1.568-3.424 1.568-1.526 0-2.667-.523-3.424-1.568zm10.423 1.216a1.184 1.184 0 0 1-.336-.848c0-.331.112-.608.336-.832.235-.235.518-.352.848-.352.331 0 .614.117.848.352.235.224.352.501.352.832 0 .331-.117.613-.352.848a1.153 1.153 0 0 1-.848.352c-.33 0-.613-.117-.848-.352zm0-3.92a1.184 1.184 0 0 1-.336-.848c0-.331.112-.608.336-.832.235-.235.518-.352.848-.352.331 0 .614.117.848.352.235.224.352.501.352.832 0 .331-.117.613-.352.848a1.153 1.153 0 0 1-.848.352c-.33 0-.613-.117-.848-.352zm7.52-.864c.757-.768 1.296-1.371 1.616-1.808.32-.437.48-.88.48-1.328 0-.448-.171-.827-.512-1.136-.342-.32-.774-.48-1.296-.48-.918 0-1.68.469-2.288 1.408l-1.52-.88c.49-.736 1.029-1.291 1.616-1.664.597-.373 1.36-.56 2.288-.56.938 0 1.76.299 2.464.896.704.587 1.056 1.392 1.056 2.416 0 .576-.15 1.125-.448 1.648-.299.523-.848 1.195-1.648 2.016l-2.624 2.672h5.072V165h-7.648v-1.6l3.392-3.408zm12.878-6.192v1.712h-4.72v2.752c.469-.256 1.002-.384 1.6-.384 1.045 0 1.946.315 2.704.944.757.629 1.136 1.483 1.136 2.56s-.395 1.973-1.184 2.688c-.79.704-1.76 1.056-2.912 1.056-1.504 0-2.704-.501-3.6-1.504l1.008-1.376c.085.085.197.187.336.304.149.117.448.277.896.48.448.192.938.288 1.472.288a2.41 2.41 0 0 0 1.456-.48c.437-.32.656-.784.656-1.392 0-.619-.235-1.093-.704-1.424-.459-.341-1.046-.512-1.76-.512-.704 0-1.376.176-2.016.528l-.8-.864V153.8h6.432z"/>
    <circle cx="493" cy="177" r="100" fill="#C73434"/>
    <path fill="#fff" d="M436.464 198.999h-4.896v-11.184h4.352c.757 0 1.408.09 1.952.272.554.181.965.426 1.232.736.512.576.768 1.226.768 1.952 0 .874-.278 1.525-.832 1.952a5.842 5.842 0 0 1-.416.288c-.075.032-.208.09-.4.176.693.149 1.242.464 1.648.944.416.469.624 1.056.624 1.76 0 .778-.267 1.466-.8 2.064-.63.693-1.707 1.04-3.232 1.04zm-3.008-6.544h2.4c1.365 0 2.048-.464 2.048-1.392 0-.534-.166-.918-.496-1.152-.331-.235-.843-.352-1.536-.352h-2.416v2.896zm0 4.8h2.96c.693 0 1.221-.107 1.584-.32.373-.224.56-.64.56-1.248 0-.992-.795-1.488-2.384-1.488h-2.72v3.056zm17.073-1.728h-6.672c.042.618.325 1.12.848 1.504.522.373 1.12.56 1.792.56 1.066 0 1.877-.336 2.432-1.008l1.024 1.12c-.918.949-2.112 1.424-3.584 1.424-1.195 0-2.214-.395-3.057-1.184-.831-.8-1.247-1.867-1.247-3.2 0-1.344.426-2.411 1.28-3.2.853-.79 1.856-1.184 3.008-1.184 1.162 0 2.149.352 2.959 1.056.811.693 1.217 1.653 1.217 2.88v1.232zm-6.672-1.408h4.88c0-.715-.224-1.264-.672-1.648-.448-.384-1.003-.576-1.664-.576-.651 0-1.238.202-1.76.608-.523.394-.784.933-.784 1.616zm12.626 4.88h-2.048l-2.944-8.512h1.856l2.112 6.432 2.112-6.432h1.856l2.112 6.432 2.112-6.432h1.856l-2.944 8.512h-2.048l-2.016-5.824-2.016 5.824zm17.428 0h-1.632v-1.136c-.704.842-1.648 1.264-2.832 1.264-.886 0-1.622-.251-2.208-.752-.576-.502-.864-1.168-.864-2 0-.843.309-1.472.928-1.888.618-.416 1.456-.624 2.512-.624h2.32v-.32c0-1.131-.63-1.696-1.888-1.696-.79 0-1.611.288-2.464.864l-.8-1.12a5.506 5.506 0 0 1 3.52-1.232c1.002 0 1.818.256 2.448.768.64.501.96 1.296.96 2.384v5.488zm-1.792-3.168v-.72h-2.016c-1.291 0-1.936.405-1.936 1.216 0 .416.16.736.48.96.32.213.762.32 1.328.32.576 0 1.077-.16 1.504-.48.426-.32.64-.752.64-1.296zm8.75-3.664c-.885 0-1.552.288-2 .864-.448.576-.672 1.349-.672 2.32v3.648h-1.792v-8.512h1.792v1.712a3.736 3.736 0 0 1 1.168-1.312c.502-.342 1.03-.518 1.584-.528l.016 1.808h-.096zm9.816 3.36h-6.672c.042.618.325 1.12.848 1.504.522.373 1.12.56 1.792.56 1.066 0 1.877-.336 2.432-1.008l1.024 1.12c-.918.949-2.112 1.424-3.584 1.424-1.195 0-2.214-.395-3.056-1.184-.832-.8-1.248-1.867-1.248-3.2 0-1.344.426-2.411 1.28-3.2.853-.79 1.856-1.184 3.008-1.184 1.162 0 2.149.352 2.96 1.056.81.693 1.216 1.653 1.216 2.88v1.232zm-6.672-1.408h4.88c0-.715-.224-1.264-.672-1.648-.448-.384-1.003-.576-1.664-.576-.651 0-1.238.202-1.76.608-.523.394-.784.933-.784 1.616zm15.241-2.192v4.32c0 .405.107.73.32.976.213.234.512.352.896.352s.752-.187 1.104-.56l.736 1.264c-.629.565-1.328.848-2.096.848a2.722 2.722 0 0 1-1.952-.784c-.533-.534-.8-1.248-.8-2.144v-4.272h-1.072v-1.44h1.072v-2.672h1.792v2.672h2.24v1.44h-2.24zm6.272 2.464v4.608h-1.792v-11.856h1.792v4.896c.256-.523.64-.934 1.152-1.232a3.324 3.324 0 0 1 1.68-.448c.96 0 1.733.293 2.32.88.597.586.896 1.434.896 2.544v5.216h-1.792v-4.672c0-1.568-.651-2.352-1.952-2.352-.619 0-1.158.208-1.616.624-.459.405-.688 1.002-.688 1.792zm10.343 4.608h-1.792v-8.512h1.792v8.512zm-1.68-10.208a1.093 1.093 0 0 1-.336-.8c0-.31.112-.576.336-.8.224-.224.491-.336.8-.336.31 0 .576.112.8.336.224.224.336.49.336.8 0 .309-.112.576-.336.8-.224.224-.49.336-.8.336-.309 0-.576-.112-.8-.336zm10.343 7.664c0 .81-.293 1.461-.88 1.952-.587.48-1.339.72-2.256.72a6.114 6.114 0 0 1-1.936-.336 5.824 5.824 0 0 1-1.76-.944l.864-1.392c.992.746 1.952 1.12 2.88 1.12.405 0 .725-.091.96-.272a.893.893 0 0 0 .352-.72c0-.427-.565-.811-1.696-1.152a1.746 1.746 0 0 0-.192-.064c-1.771-.48-2.656-1.28-2.656-2.4 0-.79.304-1.419.912-1.888.619-.48 1.419-.72 2.4-.72.981 0 1.909.288 2.784.864l-.672 1.328a4.005 4.005 0 0 0-2.256-.688c-.427 0-.773.08-1.04.24a.736.736 0 0 0-.4.688c0 .277.139.48.416.608.192.096.459.186.8.272.352.085.661.17.928.256.267.085.523.181.768.288.256.106.528.256.816.448.576.384.864.981.864 1.792zm10.196 2.672c-1.184 0-2.202-.4-3.056-1.2-.853-.811-1.28-1.867-1.28-3.168 0-1.302.443-2.358 1.328-3.168.896-.822 1.984-1.232 3.264-1.232 1.28 0 2.363.442 3.248 1.328l-1.056 1.296c-.736-.64-1.477-.96-2.224-.96-.746 0-1.397.25-1.952.752-.544.49-.816 1.13-.816 1.92 0 .778.272 1.44.816 1.984.544.544 1.211.816 2 .816.8 0 1.552-.363 2.256-1.088l1.056 1.152c-1.034 1.045-2.229 1.568-3.584 1.568zm12.277-.128h-1.632v-1.136c-.704.842-1.648 1.264-2.832 1.264-.886 0-1.622-.251-2.208-.752-.576-.502-.864-1.168-.864-2 0-.843.309-1.472.928-1.888.618-.416 1.456-.624 2.512-.624h2.32v-.32c0-1.131-.63-1.696-1.888-1.696-.79 0-1.611.288-2.464.864l-.8-1.12a5.506 5.506 0 0 1 3.52-1.232c1.002 0 1.818.256 2.448.768.64.501.96 1.296.96 2.384v5.488zm-1.792-3.168v-.72h-2.016c-1.291 0-1.936.405-1.936 1.216 0 .416.16.736.48.96.32.213.762.32 1.328.32.576 0 1.077-.16 1.504-.48.426-.32.64-.752.64-1.296zm6.078 3.168h-1.792v-11.872h1.792v11.872zm4.391 0h-1.792v-11.872h1.792v11.872zM446.08 218.391v4.608h-1.792v-8.512h1.792v1.552c.256-.523.64-.934 1.152-1.232a3.33 3.33 0 0 1 1.68-.448c1.344 0 2.256.554 2.736 1.664.843-1.11 1.894-1.664 3.152-1.664.96 0 1.734.293 2.32.88.598.586.896 1.434.896 2.544v5.216h-1.792v-4.672c0-1.568-.65-2.352-1.952-2.352-.608 0-1.141.197-1.6.592-.448.384-.682.949-.704 1.696v4.736h-1.792v-4.672c0-.811-.144-1.403-.432-1.776-.288-.384-.741-.576-1.36-.576a2.33 2.33 0 0 0-1.616.624c-.458.405-.688 1.002-.688 1.792zm16.219 4.608h-1.792v-8.512h1.792v8.512zm-1.68-10.208a1.093 1.093 0 0 1-.336-.8c0-.31.112-.576.336-.8.224-.224.491-.336.8-.336.309 0 .576.112.8.336.224.224.336.49.336.8 0 .309-.112.576-.336.8a1.093 1.093 0 0 1-.8.336c-.309 0-.576-.112-.8-.336zm12.151 1.696v7.424c0 1.504-.411 2.629-1.232 3.376-.811.757-1.856 1.136-3.136 1.136s-2.438-.4-3.472-1.2l.848-1.36c.832.629 1.669.944 2.512.944.853 0 1.525-.219 2.016-.656.501-.438.752-1.136.752-2.096v-1.088a3.046 3.046 0 0 1-1.152 1.2 3.145 3.145 0 0 1-1.664.448c-1.131 0-2.059-.395-2.784-1.184-.726-.79-1.088-1.771-1.088-2.944 0-1.174.362-2.155 1.088-2.944.725-.79 1.648-1.184 2.768-1.184 1.13 0 2.048.464 2.752 1.392v-1.264h1.792zm-6.64 3.936c0 .693.213 1.296.64 1.808.437.501 1.018.752 1.744.752.736 0 1.328-.246 1.776-.736.458-.491.688-1.099.688-1.824 0-.736-.23-1.355-.688-1.856-.459-.512-1.051-.768-1.776-.768-.726 0-1.307.261-1.744.784-.427.522-.64 1.136-.64 1.84zm11.028-.032v4.608h-1.792v-11.856h1.792v4.896c.256-.523.64-.934 1.152-1.232a3.33 3.33 0 0 1 1.68-.448c.96 0 1.734.293 2.32.88.598.586.896 1.434.896 2.544v5.216h-1.792v-4.672c0-1.568-.65-2.352-1.952-2.352a2.33 2.33 0 0 0-1.616.624c-.458.405-.688 1.002-.688 1.792zm10.76-2.464v4.32c0 .405.107.73.32.976.213.234.512.352.896.352s.752-.187 1.104-.56l.736 1.264c-.629.565-1.328.848-2.096.848a2.722 2.722 0 0 1-1.952-.784c-.533-.534-.8-1.248-.8-2.144v-4.272h-1.072v-1.44h1.072v-2.672h1.792v2.672h2.24v1.44h-2.24zm15.766 7.072h-1.632v-1.136c-.704.842-1.648 1.264-2.832 1.264-.885 0-1.621-.251-2.208-.752-.576-.502-.864-1.168-.864-2 0-.843.31-1.472.928-1.888.619-.416 1.456-.624 2.512-.624h2.32v-.32c0-1.131-.629-1.696-1.888-1.696-.789 0-1.61.288-2.464.864l-.8-1.12a5.508 5.508 0 0 1 3.52-1.232c1.003 0 1.819.256 2.448.768.64.501.96 1.296.96 2.384v5.488zm-1.792-3.168v-.72h-2.016c-1.29 0-1.936.405-1.936 1.216 0 .416.16.736.48.96.32.213.763.32 1.328.32.576 0 1.078-.16 1.504-.48.427-.32.64-.752.64-1.296zm6.401-3.904v4.32c0 .405.107.73.32.976.213.234.512.352.896.352s.752-.187 1.104-.56l.736 1.264c-.629.565-1.328.848-2.096.848a2.722 2.722 0 0 1-1.952-.784c-.533-.534-.8-1.248-.8-2.144v-4.272h-1.072v-1.44h1.072v-2.672h1.792v2.672h2.24v1.44h-2.24zm13.334.24c-.885 0-1.552.288-2 .864-.448.576-.672 1.349-.672 2.32v3.648h-1.792v-8.512h1.792v1.712a3.736 3.736 0 0 1 1.168-1.312c.502-.342 1.03-.518 1.584-.528l.016 1.808h-.096zm3.688 6.832h-1.792v-8.512h1.792v8.512zm-1.68-10.208a1.093 1.093 0 0 1-.336-.8c0-.31.112-.576.336-.8.224-.224.49-.336.8-.336.309 0 .576.112.8.336.224.224.336.49.336.8 0 .309-.112.576-.336.8a1.093 1.093 0 0 1-.8.336c-.31 0-.576-.112-.8-.336zm10.342 7.664c0 .81-.293 1.461-.88 1.952-.586.48-1.338.72-2.256.72a6.118 6.118 0 0 1-1.936-.336 5.824 5.824 0 0 1-1.76-.944l.864-1.392c.992.746 1.952 1.12 2.88 1.12.406 0 .726-.091.96-.272a.893.893 0 0 0 .352-.72c0-.427-.565-.811-1.696-1.152a1.746 1.746 0 0 0-.192-.064c-1.77-.48-2.656-1.28-2.656-2.4 0-.79.304-1.419.912-1.888.619-.48 1.419-.72 2.4-.72.982 0 1.91.288 2.784.864l-.672 1.328a4.005 4.005 0 0 0-2.256-.688c-.426 0-.773.08-1.04.24a.737.737 0 0 0-.4.688c0 .277.139.48.416.608.192.096.459.186.8.272.352.085.662.17.928.256.267.085.523.181.768.288.256.106.528.256.816.448.576.384.864.981.864 1.792zm3.822 2.544h-1.792v-11.872h1.792v6.976l3.456-3.616h2.304l-3.232 3.376 3.472 5.136h-2.176l-2.528-3.728-1.296 1.312v2.416zM494 125c-11.045 0-20 8.953-20 20s8.955 20 20 20 20-8.953 20-20-8.955-20-20-20zm0 33.09a2.91 2.91 0 1 1 0-5.82 2.91 2.91 0 0 1 0 5.82zm3.158-22.486l-1.122 13.177a2.035 2.035 0 1 1-4.072 0l-1.122-13.177a3.35 3.35 0 0 1-.042-.495 3.2 3.2 0 0 1 6.4 0c0 .169-.018.334-.042.495z"/>
</svg>
