<svg xmlns="http://www.w3.org/2000/svg" width="16" height="16" fill="none" viewBox="0 0 16 16">
    <path fill="#000" fill-rule="evenodd" d="M3.858 1.78C3.836.77 3.113 0 1.94 0S0 .77 0 1.78c0 .99.744 1.78 1.896 1.78h.022c1.195 0 1.94-.79 1.94-1.78zm-.226 3.187H.202v10.304h3.43V4.967zm8.42-.242C14.307 4.725 16 6.198 16 9.363v5.908h-3.43V9.76c0-1.385-.496-2.33-1.737-2.33-.948 0-1.512.637-1.76 1.252-.09.22-.113.528-.113.836v5.755H5.53s.046-9.338 0-10.304h3.43v1.459c.455-.702 1.27-1.702 3.091-1.702z" clip-rule="evenodd"/>
</svg>
