<svg xmlns="http://www.w3.org/2000/svg" width="229" height="32" fill="none" viewBox="0 0 229 32">
    <path fill="#fff" fill-rule="evenodd" d="M10.869 3.895c-.24.683-.29 1.51-.151 2.455l.185.922.005.018c.48 1.9 1.469 3.698 1.87 4.38-1.423 1.415-.839 3.764-.811 3.868l.082.319.328-.028a.7.7 0 0 1 .065-.002c.2 0 .388.082.557.203-1.414.97-3.025.732-3.025.732C1.862 12.677 0 5.586 0 5.586S2.704 1.741 9.013.358c5.14-1.126 5.056.701 4.847 1.416-1.736.791-2.834 1.906-2.904 1.978l-.06.062-.027.081zM35.142 5.586s-1.862 7.09-9.974 11.176c0 0-1.84.272-3.314-.952.054-.005.111-.008.17-.008.148 0 .25.02.25.02l.363.076.093-.36c.412-1.6-.536-3.345-.957-4.014.908-.976 1.475-2.43 1.685-4.33l.067-.85v-.011a14.69 14.69 0 0 0-.065-2.359l-.016-.134-.097-.095A11.156 11.156 0 0 0 21.38 2.19l.002-.148S19.82-1.024 26.13.358c6.31 1.382 9.013 5.228 9.013 5.228z" clip-rule="evenodd"/>
    <path fill="#fff" fill-rule="evenodd" d="M13.477 7.93a.634.634 0 0 0-.44-.115c.059.073.073.168.025.236-.06.086-.194.097-.299.024a.286.286 0 0 1-.054-.051c-.124.216-.032.52.218.695.262.182.598.154.75-.063.151-.218.062-.542-.2-.725zM22.99 20.593c-.063 2.143-.759 3.79-2.07 4.895a.246.246 0 0 1-.313.001.244.244 0 0 1-.058-.308c.01-.02.021-.033.034-.05.34-.42 1.94-2.771.016-7.698a.252.252 0 0 1-.007-.026c.157-.465.26-.74.263-.748l.008-.024c.152-.498.485-.776.99-.825a1.795 1.795 0 0 1 .42.012l.104.021c.01.02.018.04.024.063.255 1.16.64 2.913.589 4.687zM14.488 25.3a.245.245 0 0 1-.403.188c-1.288-1.086-1.983-2.686-2.066-4.757-.07-1.76.304-3.511.552-4.67a.244.244 0 0 1 .158-.18c.095.036.185.088.27.149.363.26.637.707.736.918.13.29.255.753.371 1.327-1.44 4.457.003 6.486.311 6.852a.246.246 0 0 1 .07.173z" clip-rule="evenodd"/>
    <path fill="#fff" fill-rule="evenodd" d="M22.875 6.95a4.39 4.39 0 0 0-.693.27c-.094.046-.19.1-.288.157-.048.03-.097.06-.144.093-.024.017-.049.032-.072.05l-.07.052a1.06 1.06 0 0 0-.07.054l-.057.047c.217-.037.464-.047.747-.017 0 0-.02 1.677-2.26 1.684 0 0 .011-.142.07-.343l.018-.066c.01-.041.028-.085.043-.13.016-.046.032-.094.054-.143.022-.049.042-.1.068-.15.027-.052.054-.104.083-.156l.1-.157c.038-.05.075-.102.116-.153l.064-.074c.022-.025.043-.05.067-.073.047-.047.092-.096.143-.139a6.63 6.63 0 0 1 .075-.066l.08-.062c.05-.042.107-.08.161-.117.027-.02.056-.036.084-.053l.084-.052c.029-.015.057-.03.086-.047l.086-.044.086-.042.086-.038c.057-.026.115-.047.17-.07a4.144 4.144 0 0 1 .627-.178c.186-.038.341-.058.45-.069.11-.01.171-.011.171-.011s-.06.013-.165.043zm-10.803.706c.283-.03.53-.02.746.017l-.057-.047a13.007 13.007 0 0 0-.14-.106c-.023-.018-.047-.034-.071-.05-.047-.033-.097-.062-.145-.093a3.988 3.988 0 0 0-.558-.28 4.39 4.39 0 0 0-.422-.147c-.104-.03-.166-.043-.166-.043s.063.001.172.011a4.53 4.53 0 0 1 .748.141c.105.03.215.065.328.107.056.022.114.043.17.07.03.012.059.024.087.037l.086.042.086.044.086.047.084.052c.028.017.057.034.084.053.054.038.11.075.162.117.026.02.053.04.079.062l.075.066c.051.043.096.092.143.139.024.023.045.048.067.073l.064.074c.04.05.078.103.116.153l.1.157c.029.052.056.104.083.155.026.051.046.102.067.151.023.049.039.097.055.142.015.046.032.09.043.131l.017.066c.06.201.072.343.072.343-2.24-.007-2.261-1.684-2.261-1.684zm11-3.633c-6.068-5.948-11.836 0-11.836 0-.238.68-.251 1.465-.133 2.27l.182.901c.59 2.331 1.994 4.55 1.994 4.55-1.572 1.233-.936 3.696-.936 3.696 1.082-.09 1.747 1.348 1.747 1.348.841 1.858 1.401 10.334 1.401 10.334.513 5.57 5.179 4.847 5.179 4.847 3.355-1.382.71-1.872.71-1.872-6.067.19-.89-13.575-.89-13.575.42-1.382 1.862-1.082 1.862-1.082.472-1.832-1.082-3.966-1.082-3.966 1.165-1.08 1.631-2.804 1.8-4.323l.066-.837c.063-1.303-.063-2.29-.063-2.29z" clip-rule="evenodd"/>
    <path fill="#fff" fill-rule="evenodd" d="M21.59 8.024a.262.262 0 0 1-.054.05c-.105.074-.238.063-.298-.023-.048-.068-.034-.163.025-.236a.635.635 0 0 0-.44.116c-.263.183-.352.507-.2.725.152.217.487.245.75.063.25-.175.341-.479.217-.695zM51.945 16.324v4.31c0 .444.12.666.36.666h2.489c1.394 0 2.091-.8 2.091-2.398h.973V22.4h-9.86v-.74c.852 0 1.28-.311 1.28-.937v-9.447c0-.612-.428-.93-1.28-.955v-.72H57.3v3.496h-.974c0-1.598-.715-2.397-2.145-2.397h-2.236v4.525h2.38c.469 0 .709-.325.721-.974h.92v2.957h-.92c-.012-.589-.252-.884-.721-.884h-2.38zM70.707 21.3c1.382 0 2.073-.769 2.073-2.307h.974V22.4h-8.6v-.738c.841 0 1.262-.312 1.262-.936v-9.433c0-.624-.42-.942-1.262-.954V9.6h5.264v.74c-.89.023-1.334.341-1.334.953v9.377c0 .42.199.63.595.63h1.028zM84.745 16.324v4.31c0 .444.12.666.36.666h2.489c1.394 0 2.09-.8 2.09-2.398h.974V22.4h-9.861v-.74c.853 0 1.28-.311 1.28-.937v-9.447c0-.612-.427-.93-1.28-.955v-.72h9.302v3.496h-.973c0-1.598-.715-2.397-2.145-2.397h-2.236v4.525h2.38c.469 0 .709-.325.72-.974h.92v2.957h-.92c-.011-.589-.251-.884-.72-.884h-2.38zM101.541 16.324v3.949c0 .925.451 1.387 1.352 1.387v.74h-5.21v-.74c.793 0 1.19-.311 1.19-.937v-9.447c0-.624-.397-.943-1.19-.955v-.72h8.582v3.496h-.956c0-1.598-.553-2.397-1.658-2.397h-2.11v4.525h2.236c.457 0 .69-.325.703-.974h.937v2.957h-.937c-.013-.589-.246-.884-.703-.884h-2.236zM116.733 16.324v4.31c0 .444.121.666.361.666h2.488c1.394 0 2.091-.8 2.091-2.398h.973V22.4h-9.861v-.74c.853 0 1.28-.311 1.28-.937v-9.447c0-.612-.427-.93-1.28-.955v-.72h9.303v3.496h-.974c0-1.598-.715-2.397-2.145-2.397h-2.236v4.525h2.38c.469 0 .709-.325.721-.974h.919v2.957h-.919c-.012-.589-.252-.884-.721-.884h-2.38zM131.746 14.54v6.183c0 .626.325.938.974.938v.739h-3.047v-.74c.564 0 .847-.311.847-.935v-8.568c0-1.212-.283-1.818-.847-1.818V9.6h1.46l7.031 8.149v-6.457c0-.61-.301-.929-.902-.953V9.6h3.047v.74c-.613 0-.919.317-.919.953V22.4h-.667l-6.977-7.86zM151.858 21.408c1.033-.024 1.881-.48 2.542-1.367.757-1.033 1.136-2.34 1.136-3.924 0-1.692-.379-3.084-1.136-4.176-.661-.948-1.509-1.421-2.542-1.421h-1.01v10.132c0 .504.235.756.703.756h.307zm.091-11.808c2.151.048 3.78.68 4.885 1.893.998 1.106 1.497 2.632 1.497 4.579 0 1.851-.541 3.371-1.622 4.561-1.01 1.13-2.597 1.719-4.76 1.767h-5.03v-.74c.841 0 1.262-.311 1.262-.937v-9.447c0-.624-.421-.943-1.262-.955v-.72h5.03z" clip-rule="evenodd"/>
    <rect width="53" height="24" x="175.5" y="3.5" stroke="#fff" rx="3.5"/>
    <path fill="#fff" d="M188.642 21h-4.284v-9.786h3.808c.663 0 1.232.08 1.708.238.485.159.845.373 1.078.644.448.504.672 1.073.672 1.708 0 .765-.243 1.335-.728 1.708a4.71 4.71 0 0 1-.364.252l-.35.154c.607.13 1.087.406 1.442.826.364.41.546.924.546 1.54a2.63 2.63 0 0 1-.7 1.806c-.551.607-1.493.91-2.828.91zm-2.632-5.726h2.1c1.195 0 1.792-.406 1.792-1.218 0-.467-.145-.803-.434-1.008-.289-.205-.737-.308-1.344-.308h-2.114v2.534zm0 4.2h2.59c.607 0 1.069-.093 1.386-.28.327-.196.49-.56.49-1.092 0-.868-.695-1.302-2.086-1.302h-2.38v2.674zm15.107-8.26v1.554h-5.222v2.59h4.69v1.47h-4.69v2.618h5.39V21h-7.042v-9.786h6.874zm5.982 1.512V21h-1.652v-8.274h-2.968v-1.512h7.588v1.512h-2.968zm5.374 6.048l-.98 2.226h-1.764l4.312-9.786h1.764L220.117 21h-1.764l-.98-2.226h-4.9zm4.228-1.526l-1.778-4.032-1.778 4.032h3.556z"/>
</svg>
