<svg xmlns="http://www.w3.org/2000/svg" width="273" height="40" fill="none" viewBox="0 0 273 40">
    <path fill="#fff" fill-rule="evenodd" d="M13.586 4.87c-.3.853-.363 1.885-.189 3.067l.232 1.152.006.024c.6 2.374 1.836 4.622 2.337 5.474-1.779 1.769-1.048 4.705-1.014 4.836l.103.398.41-.034a.875.875 0 0 1 .081-.004c.25 0 .485.103.697.255-1.768 1.211-3.781.915-3.781.915C2.328 15.846 0 6.983 0 6.983S3.38 2.175 11.266.447c6.426-1.408 6.32.876 6.06 1.77-2.17.988-3.543 2.382-3.63 2.472l-.076.078-.034.101zM43.928 6.982S41.6 15.845 31.46 20.952c0 0-2.301.34-4.143-1.19a2.248 2.248 0 0 1 .524.015l.456.095.115-.45c.515-2-.67-4.181-1.196-5.017 1.136-1.22 1.844-3.038 2.106-5.412l.085-1.062v-.015a18.375 18.375 0 0 0-.082-2.948l-.02-.168-.122-.118a13.941 13.941 0 0 0-2.458-1.945l.003-.186S24.775-1.28 32.66.448c7.887 1.727 11.267 6.534 11.267 6.534z" clip-rule="evenodd"/>
    <path fill="#fff" fill-rule="evenodd" d="M16.847 9.914a.793.793 0 0 0-.551-.145c.074.091.091.21.032.295-.075.108-.242.12-.373.03a.353.353 0 0 1-.068-.064c-.155.27-.04.65.273.868.327.229.747.194.936-.078.19-.272.078-.678-.249-.906zM28.737 25.741c-.078 2.68-.948 4.737-2.587 6.12a.308.308 0 0 1-.392 0 .305.305 0 0 1-.072-.385.368.368 0 0 1 .042-.061c.426-.526 2.425-3.465.02-9.624a.274.274 0 0 1-.009-.032c.197-.581.325-.925.329-.935l.01-.03c.19-.623.606-.97 1.239-1.031a2.246 2.246 0 0 1 .524.014l.13.027c.013.024.023.05.03.078.318 1.45.8 3.641.736 5.86zM18.11 31.626a.306.306 0 0 1-.504.234c-1.61-1.357-2.479-3.358-2.582-5.946-.087-2.2.38-4.389.69-5.838a.306.306 0 0 1 .198-.224c.118.044.23.109.337.185.454.327.797.885.92 1.149.163.361.318.94.464 1.658-1.8 5.57.004 8.108.389 8.565l.01.012a.307.307 0 0 1 .078.205z" clip-rule="evenodd"/>
    <path fill="#fff" fill-rule="evenodd" d="M28.594 8.687a5.492 5.492 0 0 0-.866.338 4.905 4.905 0 0 0-.36.196c-.06.038-.122.075-.18.117-.03.02-.061.04-.09.061-.03.022-.06.043-.088.066-.03.02-.059.044-.087.067l-.072.059c.272-.047.58-.059.933-.021 0 0-.024 2.096-2.825 2.105 0 0 .015-.178.09-.429l.02-.082c.014-.052.036-.106.055-.164.02-.057.04-.117.068-.178.027-.06.052-.124.084-.188.034-.064.068-.129.104-.194.04-.065.082-.13.125-.196.047-.063.094-.128.145-.191l.08-.093c.027-.031.053-.063.083-.092.059-.058.115-.12.18-.173l.094-.083.098-.077c.065-.053.134-.1.203-.146.033-.025.069-.045.104-.067l.105-.064.108-.059c.036-.02.07-.038.107-.055l.108-.053.108-.047c.07-.033.143-.059.213-.087a5.187 5.187 0 0 1 .783-.224c.232-.047.426-.071.562-.085.137-.013.214-.015.214-.015s-.076.017-.206.054zM15.09 9.57a3.38 3.38 0 0 1 .933.02l-.071-.058a14.05 14.05 0 0 0-.174-.133l-.09-.061c-.06-.042-.12-.079-.181-.117a4.967 4.967 0 0 0-.698-.349 5.5 5.5 0 0 0-.528-.185c-.13-.037-.207-.054-.207-.054s.078.002.215.015a5.668 5.668 0 0 1 .934.176c.133.036.27.081.411.133.07.028.142.054.214.087.035.015.072.03.107.047l.108.053c.036.017.072.035.107.055l.107.059.106.064c.035.022.07.042.104.067.069.047.138.093.203.146.033.026.067.05.099.077l.094.083c.064.054.12.115.18.173.029.029.055.061.082.092l.08.092c.051.064.098.129.145.192l.125.196c.036.065.07.13.104.194.032.063.058.128.084.188.029.061.048.121.068.178.019.058.04.112.054.164l.022.082c.074.252.09.429.09.429-2.802-.009-2.827-2.105-2.827-2.105zm13.751-4.54c-7.586-7.436-14.796 0-14.796 0-.297.848-.314 1.83-.166 2.836l.228 1.127c.736 2.914 2.492 5.688 2.492 5.688-1.965 1.54-1.17 4.62-1.17 4.62 1.353-.113 2.184 1.684 2.184 1.684 1.051 2.323 1.751 12.917 1.751 12.917.64 6.964 6.474 6.06 6.474 6.06 4.194-1.728.888-2.341.888-2.341-7.585.238-1.114-16.969-1.114-16.969.525-1.727 2.328-1.352 2.328-1.352.59-2.29-1.352-4.957-1.352-4.957 1.456-1.35 2.04-3.506 2.249-5.404l.083-1.047C29 6.264 28.84 5.03 28.84 5.03z" clip-rule="evenodd"/>
    <path fill="#fff" fill-rule="evenodd" d="M26.988 10.03a.324.324 0 0 1-.068.063c-.13.092-.298.079-.373-.029-.06-.085-.042-.204.032-.295a.793.793 0 0 0-.55.145c-.328.228-.44.634-.25.906s.61.307.937.078c.313-.218.427-.598.272-.868zM64.931 20.405v5.386c0 .556.15.834.451.834h3.11c1.743 0 2.614-.999 2.614-2.997h1.217V28H59.996v-.924c1.066 0 1.6-.39 1.6-1.172V14.095c0-.766-.534-1.163-1.6-1.194V12h11.628v4.372h-1.216c0-1.999-.895-2.998-2.682-2.998H64.93v5.657h2.975c.586 0 .886-.406.901-1.217h1.15v3.696h-1.15c-.015-.736-.315-1.105-.901-1.105h-2.975zM88.383 26.625c1.728 0 2.592-.961 2.592-2.884h1.217V28h-10.75v-.923c1.052 0 1.578-.39 1.578-1.17v-11.79c0-.78-.526-1.178-1.578-1.193V12h6.58v.924c-1.111.03-1.667.427-1.667 1.192v11.722c0 .525.248.787.744.787h1.284zM105.931 20.405v5.386c0 .556.151.834.451.834h3.11c1.743 0 2.614-.999 2.614-2.997h1.217V28h-12.327v-.924c1.066 0 1.6-.39 1.6-1.172V14.095c0-.766-.534-1.163-1.6-1.194V12h11.628v4.372h-1.216c0-1.999-.895-2.998-2.682-2.998h-2.795v5.657h2.975c.586 0 .886-.406.901-1.217h1.15v3.696h-1.15c-.015-.736-.315-1.105-.901-1.105h-2.975zM126.927 20.405v4.936c0 1.157.563 1.735 1.69 1.735V28h-6.513v-.924c.992 0 1.488-.39 1.488-1.172V14.095c0-.78-.496-1.179-1.488-1.194V12h10.727v4.372h-1.195c0-1.999-.69-2.998-2.073-2.998h-2.636v5.657h2.794c.571 0 .863-.406.879-1.217h1.172v3.696H130.6c-.016-.736-.308-1.105-.879-1.105h-2.794zM145.916 20.405v5.386c0 .556.151.834.452.834h3.109c1.743 0 2.614-.999 2.614-2.997h1.217V28h-12.327v-.924c1.067 0 1.601-.39 1.601-1.172V14.095c0-.766-.534-1.163-1.601-1.194V12h11.629v4.372h-1.217c0-1.999-.894-2.998-2.682-2.998h-2.795v5.657h2.976c.585 0 .885-.406.901-1.217h1.149v3.696h-1.149c-.016-.736-.316-1.105-.901-1.105h-2.976zM164.682 18.174v7.73c0 .782.406 1.172 1.217 1.172V28h-3.808v-.924c.705 0 1.059-.39 1.059-1.17v-10.71c0-1.514-.354-2.272-1.059-2.272V12h1.825l8.789 10.186v-8.07c0-.765-.376-1.162-1.127-1.192V12h3.808v.924c-.766 0-1.149.397-1.149 1.192V28h-.833l-8.722-9.826zM189.823 26.76c1.291-.03 2.351-.6 3.177-1.71.947-1.29 1.42-2.924 1.42-4.904 0-2.114-.473-3.855-1.42-5.22-.826-1.184-1.886-1.777-3.177-1.777h-1.262v12.666c0 .63.293.946.878.946h.384zm.113-14.76c2.689.06 4.725.849 6.107 2.366 1.247 1.383 1.871 3.29 1.871 5.724 0 2.314-.677 4.214-2.028 5.701-1.263 1.412-3.246 2.149-5.95 2.209h-6.288v-.924c1.052 0 1.578-.39 1.578-1.172V14.095c0-.78-.526-1.179-1.578-1.194V12h6.288z" clip-rule="evenodd"/>
    <rect width="58" height="27" x="214.5" y="6.5" stroke="#fff" rx="3.5"/>
    <path fill="#fff" d="M228.448 26h-4.896V14.816h4.352c.757 0 1.408.09 1.952.272.555.181.965.427 1.232.736.512.576.768 1.227.768 1.952 0 .875-.277 1.525-.832 1.952-.203.15-.341.245-.416.288-.075.032-.208.09-.4.176.693.15 1.243.464 1.648.944.416.47.624 1.056.624 1.76 0 .779-.267 1.467-.8 2.064-.629.693-1.707 1.04-3.232 1.04zm-3.008-6.544h2.4c1.365 0 2.048-.464 2.048-1.392 0-.533-.165-.917-.496-1.152-.331-.235-.843-.352-1.536-.352h-2.416v2.896zm0 4.8h2.96c.693 0 1.221-.107 1.584-.32.373-.224.56-.64.56-1.248 0-.992-.795-1.488-2.384-1.488h-2.72v3.056zm17.265-9.44v1.776h-5.968v2.96h5.36v1.68h-5.36v2.992h6.16V26h-8.048V14.816h7.856zm6.837 1.728V26h-1.888v-9.456h-3.392v-1.728h8.672v1.728h-3.392zm6.141 6.912L254.563 26h-2.016l4.928-11.184h2.016L264.419 26h-2.016l-1.12-2.544h-5.6zm4.832-1.744l-2.032-4.608-2.032 4.608h4.064z"/>
</svg>
