<svg xmlns="http://www.w3.org/2000/svg" width="483" height="511" fill="none" viewBox="0 0 483 511">
    <rect width="279" height="507" x="102" y="2" fill="#fff" stroke="#1A2643" stroke-width="4" rx="32"/>
    <rect width="259" height="487" x="112" y="12" fill="#1A2643" rx="30"/>
    <circle cx="294" cy="403" r="32" fill="#3AD621"/>
    <path fill="#fff" d="M304.779 413.532l-3.31-4.425c-.675-.911-1.959-1.114-2.904-.472a49.997 49.997 0 0 1-1.823 1.216c-1.622.946-3.951-1.79-6.012-5.336-2.061-3.546-3.005-6.55-1.385-7.464.203-.101.911-.472 1.959-.978 1.013-.507 1.485-1.689 1.047-2.736l-2.195-5.066c-.372-.878-1.316-1.385-2.262-1.249-1.284.203-2.667.71-3.343 1.08-3.849 2.23-3.343 11.144 1.52 19.52 4.828 8.341 12.19 13.035 16.039 10.84.676-.405 1.823-1.351 2.635-2.364.574-.743.608-1.823.034-2.566z"/>
    <circle cx="190" cy="403" r="32" fill="#C73434"/>
    <path fill="#fff" d="M174.633 407.461l5.487-.654c1.127-.129 1.945-1.139 1.861-2.279a52.991 52.991 0 0 1-.142-2.187c-.008-1.877 3.526-2.527 7.627-2.538 4.101-.012 7.176.673 7.157 2.532-.014.227-.047 1.026-.132 2.186-.068 1.131.72 2.131 1.846 2.275l5.484.632c.947.117 1.858-.448 2.213-1.335.466-1.213.719-2.665.736-3.435-.006-4.448-7.98-8.467-17.665-8.443-9.637.01-17.383 4.039-17.407 8.47.013.788.259 2.255.73 3.464.357.868 1.275 1.438 2.205 1.312zM156.319 118.224v2.664h-8.952v4.44h8.04v2.52h-8.04v4.488h9.24V135h-12.072v-16.776h11.784zM162.542 135h-2.688v-17.808h2.688V135zm15.778-5.208h-10.008c.064.928.488 1.68 1.272 2.256.784.56 1.68.84 2.688.84 1.6 0 2.816-.504 3.648-1.512l1.536 1.68c-1.376 1.424-3.168 2.136-5.376 2.136-1.792 0-3.32-.592-4.584-1.776-1.248-1.2-1.872-2.8-1.872-4.8 0-2.016.64-3.616 1.92-4.8 1.28-1.184 2.784-1.776 4.512-1.776 1.744 0 3.224.528 4.44 1.584 1.216 1.04 1.824 2.48 1.824 4.32v1.848zm-10.008-2.112h7.32c0-1.072-.336-1.896-1.008-2.472-.672-.576-1.504-.864-2.496-.864a4.2 4.2 0 0 0-2.64.912c-.784.592-1.176 1.4-1.176 2.424zm16.182-6.504v1.056h3.36v2.16h-3.36V135h-2.688v-10.608h-1.608v-2.16h1.608v-.984c0-1.344.4-2.408 1.2-3.192.816-.8 1.792-1.2 2.928-1.2 1.152 0 2.2.424 3.144 1.272l-1.104 1.896c-.528-.56-1.08-.84-1.656-.84-.576 0-1.024.184-1.344.552-.32.352-.48.832-.48 1.44zm17.826 8.616h-10.008c.064.928.488 1.68 1.272 2.256.784.56 1.68.84 2.688.84 1.6 0 2.816-.504 3.648-1.512l1.536 1.68c-1.376 1.424-3.168 2.136-5.376 2.136-1.792 0-3.32-.592-4.584-1.776-1.248-1.2-1.872-2.8-1.872-4.8 0-2.016.64-3.616 1.92-4.8 1.28-1.184 2.784-1.776 4.512-1.776 1.744 0 3.224.528 4.44 1.584 1.216 1.04 1.824 2.48 1.824 4.32v1.848zm-10.008-2.112h7.32c0-1.072-.336-1.896-1.008-2.472-.672-.576-1.504-.864-2.496-.864a4.2 4.2 0 0 0-2.64.912c-.784.592-1.176 1.4-1.176 2.424zm15.652.408V135h-2.688v-12.768h2.688v2.328a4.81 4.81 0 0 1 4.248-2.52c1.44 0 2.6.44 3.48 1.32.896.88 1.344 2.152 1.344 3.816V135h-2.688v-7.008c0-2.352-.976-3.528-2.928-3.528-.928 0-1.736.312-2.424.936-.688.608-1.032 1.504-1.032 2.688zM226 135.192c-1.616 0-3.024-.608-4.224-1.824-1.2-1.216-1.8-2.816-1.8-4.8s.616-3.568 1.848-4.752c1.232-1.184 2.696-1.776 4.392-1.776 1.712 0 3.088.72 4.128 2.16v-7.008h2.688V135h-2.688v-1.92c-.992 1.408-2.44 2.112-4.344 2.112zm-3.336-6.504c0 1.216.392 2.208 1.176 2.976.784.768 1.704 1.152 2.76 1.152 1.056 0 1.952-.384 2.688-1.152.736-.784 1.104-1.784 1.104-3s-.368-2.232-1.104-3.048c-.736-.816-1.64-1.224-2.712-1.224-1.072 0-1.992.408-2.76 1.224-.768.816-1.152 1.84-1.152 3.072zm26.287-8.256c-.816 0-1.488.168-2.016.504-.528.336-.792.848-.792 1.536 0 .672.264 1.192.792 1.56.528.352 1.648.736 3.36 1.152 1.728.416 3.024 1 3.888 1.752.88.752 1.32 1.864 1.32 3.336 0 1.456-.552 2.64-1.656 3.552-1.104.912-2.552 1.368-4.344 1.368-2.624 0-4.952-.904-6.984-2.712l1.776-2.136c1.696 1.472 3.456 2.208 5.28 2.208.912 0 1.632-.192 2.16-.576.544-.4.816-.92.816-1.56 0-.656-.256-1.16-.768-1.512-.496-.368-1.36-.696-2.592-.984-1.232-.304-2.168-.576-2.808-.816a6.595 6.595 0 0 1-1.704-.984c-.992-.752-1.488-1.904-1.488-3.456s.56-2.744 1.68-3.576c1.136-.848 2.536-1.272 4.2-1.272 1.072 0 2.136.176 3.192.528 1.056.352 1.968.848 2.736 1.488l-1.512 2.136c-.496-.448-1.168-.816-2.016-1.104a7.8 7.8 0 0 0-2.52-.432zm21.549 9.36h-10.008c.064.928.488 1.68 1.272 2.256.784.56 1.68.84 2.688.84 1.6 0 2.816-.504 3.648-1.512l1.536 1.68c-1.376 1.424-3.168 2.136-5.376 2.136-1.792 0-3.32-.592-4.584-1.776-1.248-1.2-1.872-2.8-1.872-4.8 0-2.016.64-3.616 1.92-4.8 1.28-1.184 2.784-1.776 4.512-1.776 1.744 0 3.224.528 4.44 1.584 1.216 1.04 1.824 2.48 1.824 4.32v1.848zm-10.008-2.112h7.32c0-1.072-.336-1.896-1.008-2.472-.672-.576-1.504-.864-2.496-.864a4.2 4.2 0 0 0-2.64.912c-.784.592-1.176 1.4-1.176 2.424zm18.628 7.512c-1.776 0-3.304-.6-4.584-1.8-1.28-1.216-1.92-2.8-1.92-4.752s.664-3.536 1.992-4.752c1.344-1.232 2.976-1.848 4.896-1.848s3.544.664 4.872 1.992l-1.584 1.944c-1.104-.96-2.216-1.44-3.336-1.44-1.12 0-2.096.376-2.928 1.128-.816.736-1.224 1.696-1.224 2.88 0 1.168.408 2.16 1.224 2.976.816.816 1.816 1.224 3 1.224 1.2 0 2.328-.544 3.384-1.632l1.584 1.728c-1.552 1.568-3.344 2.352-5.376 2.352zm17.092-6.048v-6.912h2.688V135h-2.688v-2.328a4.758 4.758 0 0 1-1.8 1.848 4.698 4.698 0 0 1-2.448.672c-1.44 0-2.608-.44-3.504-1.32-.88-.88-1.32-2.152-1.32-3.816v-7.824h2.688v7.008c0 2.352.976 3.528 2.928 3.528.928 0 1.736-.304 2.424-.912.688-.624 1.032-1.528 1.032-2.712zm13.283-4.392c-1.328 0-2.328.432-3 1.296-.672.864-1.008 2.024-1.008 3.48V135h-2.688v-12.768h2.688v2.568a5.607 5.607 0 0 1 1.752-1.968c.752-.512 1.544-.776 2.376-.792l.024 2.712h-.144zM315.027 135h-2.688v-12.768h2.688V135zm-2.52-15.312a1.639 1.639 0 0 1-.504-1.2c0-.464.168-.864.504-1.2a1.639 1.639 0 0 1 1.2-.504c.464 0 .864.168 1.2.504.336.336.504.736.504 1.2 0 .464-.168.864-.504 1.2a1.639 1.639 0 0 1-1.2.504c-.464 0-.864-.168-1.2-.504zm9.729 4.704v6.48c0 .608.16 1.096.48 1.464.32.352.768.528 1.344.528.576 0 1.128-.28 1.656-.84l1.104 1.896c-.944.848-1.992 1.272-3.144 1.272-1.136 0-2.112-.392-2.928-1.176-.8-.8-1.2-1.872-1.2-3.216v-6.408h-1.608v-2.16h1.608v-4.008h2.688v4.008h3.36v2.16h-3.36zm8.328 15.696c-1.168 0-2.224-.424-3.168-1.272l1.224-2.184c.56.528 1.136.792 1.728.792.608 0 1.096-.216 1.464-.648.384-.432.576-.904.576-1.416 0-.224-1.72-4.6-5.16-13.128h2.88l3.816 9.408 3.816-9.408h2.88l-6.192 15.168c-.368.832-.896 1.488-1.584 1.968-.688.48-1.448.72-2.28.72zM189.615 80.816h1.888V92h-1.888V80.816zm6.442 6.576V92h-1.792v-8.512h1.792v1.552a3.202 3.202 0 0 1 2.832-1.68c.96 0 1.733.293 2.32.88.597.587.896 1.435.896 2.544V92h-1.792v-4.672c0-1.568-.651-2.352-1.952-2.352-.619 0-1.158.208-1.616.624-.459.405-.688 1.003-.688 1.792zm12.328 4.736c-1.184 0-2.203-.4-3.056-1.2-.854-.81-1.28-1.867-1.28-3.168 0-1.301.442-2.357 1.328-3.168.896-.821 1.984-1.232 3.264-1.232 1.28 0 2.362.443 3.248 1.328l-1.056 1.296c-.736-.64-1.478-.96-2.224-.96-.747 0-1.398.25-1.952.752-.544.49-.816 1.13-.816 1.92a2.7 2.7 0 0 0 .816 1.984c.544.544 1.21.816 2 .816.8 0 1.552-.363 2.256-1.088l1.056 1.152c-1.035 1.045-2.23 1.568-3.584 1.568zm7.254-2.368c.512.512 1.158.768 1.936.768.779 0 1.419-.256 1.92-.768.512-.523.768-1.195.768-2.016s-.256-1.488-.768-2c-.501-.523-1.141-.784-1.92-.784-.778 0-1.424.261-1.936.784-.501.512-.752 1.179-.752 2s.251 1.493.752 2.016zm5.136 1.104c-.853.843-1.92 1.264-3.2 1.264-1.28 0-2.346-.421-3.2-1.264-.853-.853-1.28-1.893-1.28-3.12s.427-2.261 1.28-3.104c.854-.853 1.92-1.28 3.2-1.28 1.28 0 2.347.427 3.2 1.28.854.843 1.28 1.877 1.28 3.104s-.426 2.267-1.28 3.12zm5.11-3.472V92h-1.792v-8.512h1.792v1.552c.256-.523.64-.933 1.152-1.232a3.333 3.333 0 0 1 1.68-.448c1.344 0 2.256.555 2.736 1.664.843-1.11 1.893-1.664 3.152-1.664.96 0 1.733.293 2.32.88.597.587.896 1.435.896 2.544V92h-1.792v-4.672c0-1.568-.651-2.352-1.952-2.352-.608 0-1.141.197-1.6.592-.448.384-.683.95-.704 1.696V92h-1.792v-4.672c0-.81-.144-1.403-.432-1.776-.288-.384-.741-.576-1.36-.576-.619 0-1.157.208-1.616.624-.459.405-.688 1.003-.688 1.792zM242.104 92h-1.792v-8.512h1.792V92zm-1.68-10.208a1.093 1.093 0 0 1-.336-.8c0-.31.112-.576.336-.8.224-.224.49-.336.8-.336.309 0 .576.112.8.336.224.224.336.49.336.8 0 .31-.112.576-.336.8a1.093 1.093 0 0 1-.8.336c-.31 0-.576-.112-.8-.336zm6.07 5.6V92h-1.792v-8.512h1.792v1.552a3.21 3.21 0 0 1 2.832-1.68c.96 0 1.734.293 2.32.88.598.587.896 1.435.896 2.544V92h-1.792v-4.672c0-1.568-.65-2.352-1.952-2.352a2.33 2.33 0 0 0-1.616.624c-.458.405-.688 1.003-.688 1.792zm16.424-3.904v7.424c0 1.504-.411 2.63-1.232 3.376-.811.757-1.856 1.136-3.136 1.136s-2.437-.4-3.472-1.2l.848-1.36c.832.63 1.669.944 2.512.944.853 0 1.525-.219 2.016-.656.501-.437.752-1.136.752-2.096v-1.088a3.042 3.042 0 0 1-1.152 1.2 3.136 3.136 0 0 1-1.664.448c-1.131 0-2.059-.395-2.784-1.184-.725-.79-1.088-1.77-1.088-2.944 0-1.173.363-2.155 1.088-2.944.725-.79 1.648-1.184 2.768-1.184 1.131 0 2.048.464 2.752 1.392v-1.264h1.792zm-6.64 3.936c0 .693.213 1.296.64 1.808.437.501 1.019.752 1.744.752.736 0 1.328-.245 1.776-.736.459-.49.688-1.099.688-1.824 0-.736-.229-1.355-.688-1.856-.459-.512-1.051-.768-1.776-.768-.725 0-1.307.261-1.744.784-.427.523-.64 1.136-.64 1.84zm17.403 4.704c-1.184 0-2.202-.4-3.056-1.2-.853-.81-1.28-1.867-1.28-3.168 0-1.301.443-2.357 1.328-3.168.896-.821 1.984-1.232 3.264-1.232 1.28 0 2.363.443 3.248 1.328l-1.056 1.296c-.736-.64-1.477-.96-2.224-.96a2.82 2.82 0 0 0-1.952.752c-.544.49-.816 1.13-.816 1.92a2.7 2.7 0 0 0 .816 1.984c.544.544 1.211.816 2 .816.8 0 1.552-.363 2.256-1.088l1.056 1.152c-1.034 1.045-2.229 1.568-3.584 1.568zM285.958 92h-1.632v-1.136c-.704.843-1.648 1.264-2.832 1.264-.886 0-1.622-.25-2.208-.752-.576-.501-.864-1.168-.864-2 0-.843.309-1.472.928-1.888.618-.416 1.456-.624 2.512-.624h2.32v-.32c0-1.13-.63-1.696-1.888-1.696-.79 0-1.611.288-2.464.864l-.8-1.12a5.51 5.51 0 0 1 3.52-1.232c1.002 0 1.818.256 2.448.768.64.501.96 1.296.96 2.384V92zm-1.792-3.168v-.72h-2.016c-1.291 0-1.936.405-1.936 1.216 0 .416.16.736.48.96.32.213.762.32 1.328.32.576 0 1.077-.16 1.504-.48.426-.32.64-.752.64-1.296zM290.244 92h-1.792V80.128h1.792V92zm4.391 0h-1.792V80.128h1.792V92z"/>
    <circle cx="294" cy="32" r="4" fill="#fff"/>
    <rect width="96" height="4" x="186" y="30" fill="#fff" rx="2"/>
    <path stroke="#1A2643" stroke-linecap="round" stroke-linejoin="round" stroke-width="4" d="M44.37 389c-56.42-104.576-56.567-162.939 0-266.555M60.049 372.066c-49.275-91.289-49.403-142.236 0-232.687M71.338 341.961c-36.747-67.667-36.842-105.431 0-172.477M437.968 122.445c56.42 104.576 56.567 162.939 0 266.555M422.289 139.379c49.274 91.289 49.403 142.237 0 232.687M410.999 169.484c36.748 67.667 36.843 105.432 0 172.477"/>
</svg>
