<svg xmlns="http://www.w3.org/2000/svg" width="329" height="349" fill="none" viewBox="0 0 329 349">
    <rect width="190.304" height="345.822" x="69.575" y="1.365" fill="#fff" stroke="#1A2643" stroke-width="2.728" rx="21.821"/>
    <g clip-path="url(#a)">
        <rect width="176.663" height="332.181" x="76.396" y="8.185" fill="#1A2643" rx="20.457"/>
    </g>
    <circle cx="200.538" cy="274.885" r="21.827" fill="#3AD621"/>
    <path fill="#fff" d="M207.889 282.069l-2.257-3.018a1.451 1.451 0 0 0-1.982-.323c-.667.461-1.128.761-1.243.83-1.106.645-2.695-1.221-4.101-3.64-1.405-2.418-2.049-4.468-.944-5.091.138-.069.621-.322 1.336-.667.691-.346 1.013-1.152.714-1.867l-1.497-3.455a1.452 1.452 0 0 0-1.543-.852c-.876.139-1.819.484-2.28.737-2.626 1.521-2.28 7.602 1.036 13.314 3.294 5.69 8.316 8.891 10.941 7.394.461-.276 1.243-.921 1.797-1.612.391-.507.415-1.244.023-1.751v.001z"/>
    <circle cx="129.601" cy="274.885" r="21.827" fill="#C73434"/>
    <path fill="#fff" d="M119.117 277.928l3.743-.446a1.45 1.45 0 0 0 1.269-1.555 33.653 33.653 0 0 1-.096-1.492c-.006-1.28 2.404-1.723 5.202-1.731 2.797-.008 4.894.459 4.881 1.727-.009.155-.032.7-.09 1.491-.046.772.491 1.454 1.259 1.552l3.741.431a1.453 1.453 0 0 0 1.51-.91c.317-.828.49-1.818.502-2.343-.005-3.034-5.443-5.776-12.049-5.76-6.574.008-11.857 2.756-11.874 5.778.009.537.177 1.538.498 2.363.243.592.87.981 1.504.895zM106.626 80.956v1.817h-6.106v3.029h5.484v1.719h-5.484v3.061h6.302V92.4h-8.234V80.956h8.038zM110.87 92.4h-1.833V80.252h1.833V92.4zm10.762-3.552h-6.826c.044.633.333 1.146.868 1.539a3.074 3.074 0 0 0 1.833.573c1.092 0 1.921-.344 2.488-1.032l1.048 1.146c-.938.972-2.161 1.457-3.667 1.457-1.222 0-2.264-.404-3.127-1.211-.851-.819-1.276-1.91-1.276-3.274 0-1.375.436-2.467 1.309-3.274.873-.808 1.899-1.212 3.078-1.212 1.189 0 2.199.36 3.028 1.08.83.71 1.244 1.692 1.244 2.947v1.26zm-6.826-1.44h4.993c0-.732-.229-1.294-.688-1.687-.458-.393-1.025-.59-1.702-.59-.666 0-1.266.208-1.801.623-.535.404-.802.955-.802 1.653zm11.038-4.437v.72h2.292v1.474h-2.292v7.235h-1.834v-7.236h-1.096V83.69h1.096v-.671c0-.917.273-1.643.819-2.177a2.75 2.75 0 0 1 1.997-.819c.786 0 1.501.29 2.145.868l-.753 1.293c-.361-.382-.737-.573-1.13-.573-.393 0-.698.126-.917.377-.218.24-.327.567-.327.982zm12.159 5.877h-6.827c.044.633.333 1.146.868 1.539a3.076 3.076 0 0 0 1.833.573c1.092 0 1.921-.344 2.489-1.032l1.047 1.146c-.938.972-2.16 1.457-3.666 1.457-1.223 0-2.265-.404-3.127-1.211-.851-.819-1.277-1.91-1.277-3.274 0-1.375.436-2.467 1.31-3.274.873-.808 1.898-1.212 3.077-1.212 1.19 0 2.199.36 3.029 1.08.829.71 1.244 1.692 1.244 2.947v1.26zm-6.827-1.44h4.993c0-.732-.229-1.294-.687-1.687-.459-.393-1.026-.59-1.703-.59-.665 0-1.266.208-1.8.623-.535.404-.803.955-.803 1.653zm10.676.278v4.714h-1.833V83.69h1.833v1.588a3.285 3.285 0 0 1 2.898-1.719c.982 0 1.773.3 2.374.9.611.6.916 1.468.916 2.603V92.4h-1.833v-4.78c0-1.604-.666-2.406-1.997-2.406-.633 0-1.184.212-1.654.638-.469.415-.704 1.026-.704 1.834zm12.303 4.845c-1.103 0-2.063-.415-2.882-1.244-.818-.83-1.227-1.92-1.227-3.274 0-1.353.42-2.434 1.26-3.241.84-.808 1.839-1.212 2.996-1.212 1.168 0 2.106.491 2.816 1.474v-4.78h1.833v12.146h-1.833v-1.31c-.677.961-1.665 1.441-2.963 1.441zm-2.276-4.436c0 .83.267 1.506.802 2.03.535.524 1.162.785 1.883.785.72 0 1.331-.261 1.833-.785.502-.535.753-1.217.753-2.047 0-.829-.251-1.522-.753-2.079-.502-.556-1.118-.835-1.85-.835-.731 0-1.358.279-1.882.835-.524.557-.786 1.255-.786 2.096zm17.93-5.632c-.556 0-1.015.115-1.375.344-.36.23-.54.579-.54 1.048 0 .458.18.813.54 1.064.36.24 1.124.502 2.292.786 1.179.284 2.063.682 2.652 1.195.6.513.9 1.271.9 2.275 0 .993-.376 1.801-1.129 2.423-.753.622-1.741.933-2.963.933-1.79 0-3.378-.617-4.764-1.85l1.211-1.457c1.157 1.004 2.358 1.506 3.602 1.506.622 0 1.113-.13 1.473-.392.371-.273.557-.628.557-1.065 0-.447-.175-.79-.524-1.03-.338-.252-.928-.476-1.768-.672-.84-.207-1.479-.393-1.915-.557a4.507 4.507 0 0 1-1.163-.67c-.676-.514-1.015-1.3-1.015-2.358 0-1.059.382-1.872 1.146-2.44.775-.578 1.73-.867 2.865-.867.731 0 1.457.12 2.177.36a5.69 5.69 0 0 1 1.867 1.015l-1.032 1.457c-.338-.306-.796-.556-1.375-.753a5.316 5.316 0 0 0-1.719-.295zm14.699 6.385h-6.827c.044.633.333 1.146.868 1.539a3.077 3.077 0 0 0 1.834.573c1.091 0 1.92-.344 2.488-1.032l1.048 1.146c-.939.972-2.161 1.457-3.667 1.457-1.223 0-2.265-.404-3.127-1.211-.851-.819-1.277-1.91-1.277-3.274 0-1.375.437-2.467 1.31-3.274.873-.808 1.899-1.212 3.077-1.212 1.19 0 2.199.36 3.029 1.08.829.71 1.244 1.692 1.244 2.947v1.26zm-6.827-1.44h4.993c0-.732-.229-1.294-.687-1.687-.459-.393-1.026-.59-1.703-.59-.665 0-1.266.208-1.8.623-.535.404-.803.955-.803 1.653zm12.707 5.123c-1.212 0-2.254-.41-3.127-1.228-.873-.829-1.31-1.91-1.31-3.24 0-1.332.453-2.413 1.359-3.242.917-.84 2.03-1.26 3.339-1.26 1.31 0 2.418.452 3.324 1.358l-1.081 1.326c-.753-.655-1.511-.982-2.275-.982s-1.43.256-1.997.77c-.557.501-.835 1.156-.835 1.964 0 .796.278 1.473.835 2.03.556.556 1.238.834 2.046.834.818 0 1.588-.37 2.308-1.113l1.08 1.179c-1.058 1.07-2.28 1.604-3.666 1.604zm11.658-4.125V83.69h1.833v8.71h-1.833V90.81a3.248 3.248 0 0 1-1.228 1.26 3.203 3.203 0 0 1-1.67.46c-.982 0-1.778-.301-2.39-.901-.6-.6-.9-1.468-.9-2.603V83.69h1.833v4.78c0 1.605.666 2.407 1.998 2.407.633 0 1.184-.208 1.653-.622.469-.426.704-1.043.704-1.85zm9.061-2.996c-.906 0-1.588.295-2.047.884-.458.59-.687 1.38-.687 2.374v3.732h-1.834V83.69h1.834v1.752a3.827 3.827 0 0 1 1.195-1.342c.513-.35 1.053-.53 1.621-.54l.016 1.85h-.098zm3.772 6.99h-1.833V83.69h1.833v8.71zm-1.718-10.444a1.115 1.115 0 0 1-.344-.819c0-.316.114-.589.344-.818.229-.23.502-.344.818-.344.317 0 .589.115.819.344.229.23.343.502.343.818 0 .317-.114.59-.343.819a1.12 1.12 0 0 1-.819.344c-.316 0-.589-.115-.818-.344zm6.636 3.209v4.42c0 .414.109.747.328.998.218.24.524.36.916.36.393 0 .77-.19 1.13-.573l.753 1.293c-.644.579-1.359.868-2.144.868a2.784 2.784 0 0 1-1.998-.802c-.545-.546-.818-1.277-.818-2.194v-4.37h-1.097V83.69h1.097v-2.734h1.833v2.734h2.292v1.474h-2.292zm5.68 10.706c-.796 0-1.517-.29-2.161-.868l.835-1.49c.382.36.775.54 1.179.54.415 0 .748-.147.999-.441.261-.295.392-.617.392-.966 0-.153-1.173-3.138-3.519-8.955h1.964l2.603 6.417 2.603-6.417h1.964l-4.223 10.346a3.142 3.142 0 0 1-1.081 1.343 2.656 2.656 0 0 1-1.555.49zM129.337 54.214h1.288v7.628h-1.288v-7.628zm4.394 4.485v3.143h-1.222v-5.806h1.222v1.059a2.184 2.184 0 0 1 1.932-1.146c.654 0 1.182.2 1.582.6.408.4.611.979.611 1.735v3.558h-1.222v-3.187c0-1.07-.444-1.604-1.331-1.604-.422 0-.79.142-1.103.426-.313.276-.469.684-.469 1.222zm8.409 3.23a2.943 2.943 0 0 1-2.085-.818c-.582-.553-.873-1.273-.873-2.16 0-.889.302-1.609.906-2.162.611-.56 1.353-.84 2.226-.84s1.612.302 2.216.906l-.721.884c-.502-.437-1.007-.655-1.517-.655a1.92 1.92 0 0 0-1.331.513c-.371.334-.557.771-.557 1.31 0 .53.186.982.557 1.353.371.37.826.556 1.364.556.546 0 1.059-.247 1.539-.742l.72.786c-.705.713-1.52 1.07-2.444 1.07zm4.948-1.615c.349.35.79.524 1.321.524.531 0 .967-.175 1.309-.524.35-.356.524-.815.524-1.375s-.174-1.015-.524-1.364c-.342-.357-.778-.535-1.309-.535-.531 0-.972.178-1.321.535-.342.35-.513.804-.513 1.364s.171 1.019.513 1.375zm3.503.753c-.582.575-1.309.862-2.182.862s-1.601-.287-2.183-.862c-.582-.582-.873-1.291-.873-2.128 0-.837.291-1.542.873-2.117.582-.582 1.31-.873 2.183-.873.873 0 1.6.29 2.182.873.582.575.874 1.28.874 2.117s-.292 1.546-.874 2.128zm3.486-2.368v3.143h-1.223v-5.806h1.223v1.059c.174-.357.436-.637.785-.84a2.275 2.275 0 0 1 1.146-.306c.917 0 1.539.378 1.867 1.135.574-.757 1.291-1.135 2.149-1.135.655 0 1.183.2 1.583.6.407.4.611.979.611 1.735v3.558h-1.222v-3.187c0-1.07-.444-1.604-1.332-1.604-.414 0-.778.135-1.091.404-.306.262-.466.647-.48 1.157v3.23h-1.223v-3.187c0-.553-.098-.956-.294-1.211-.197-.262-.506-.393-.928-.393-.422 0-.789.142-1.102.426-.313.276-.469.684-.469 1.222zm11.062 3.143h-1.222v-5.806h1.222v5.806zm-1.146-6.963a.748.748 0 0 1-.229-.545c0-.211.077-.393.229-.546a.746.746 0 0 1 .546-.23c.211 0 .393.077.546.23a.744.744 0 0 1 .229.546.744.744 0 0 1-.229.545.746.746 0 0 1-.546.23.746.746 0 0 1-.546-.23zm4.141 3.82v3.143h-1.222v-5.806h1.222v1.059a2.192 2.192 0 0 1 1.932-1.146c.655 0 1.182.2 1.582.6.408.4.612.979.612 1.735v3.558h-1.223v-3.187c0-1.07-.444-1.604-1.331-1.604-.422 0-.79.142-1.103.426-.312.276-.469.684-.469 1.222zm11.203-2.663V61.1c0 1.026-.28 1.794-.841 2.303-.553.516-1.266.775-2.139.775a3.776 3.776 0 0 1-2.368-.819l.579-.928c.567.43 1.138.644 1.713.644.582 0 1.04-.149 1.375-.447.342-.298.513-.775.513-1.43v-.742a2.072 2.072 0 0 1-.786.819 2.137 2.137 0 0 1-1.135.305c-.771 0-1.404-.269-1.899-.807-.494-.539-.742-1.208-.742-2.009 0-.8.248-1.47.742-2.008.495-.538 1.124-.807 1.888-.807.772 0 1.397.316 1.877.95v-.863h1.223zm-4.529 2.685c0 .473.145.884.436 1.233.298.342.695.513 1.19.513.502 0 .906-.167 1.211-.502.313-.335.469-.75.469-1.244 0-.502-.156-.924-.469-1.266-.313-.35-.716-.524-1.211-.524-.495 0-.892.178-1.19.535a1.924 1.924 0 0 0-.436 1.255zm11.87 3.209a2.942 2.942 0 0 1-2.084-.82c-.582-.552-.873-1.272-.873-2.16 0-.888.302-1.608.906-2.16.611-.561 1.353-.841 2.226-.841s1.612.302 2.215.906l-.72.884c-.502-.437-1.007-.655-1.517-.655a1.92 1.92 0 0 0-1.331.513c-.371.334-.557.771-.557 1.31 0 .53.186.982.557 1.353.371.37.826.556 1.364.556.546 0 1.059-.247 1.539-.742l.72.786c-.706.713-1.521 1.07-2.445 1.07zm8.374-.088h-1.113v-.775c-.48.575-1.124.862-1.932.862-.604 0-1.106-.17-1.506-.513-.393-.341-.589-.796-.589-1.364 0-.575.211-1.004.633-1.288.422-.283.993-.425 1.713-.425h1.583v-.218c0-.772-.43-1.157-1.288-1.157-.539 0-1.099.196-1.681.59l-.546-.765a3.761 3.761 0 0 1 2.401-.84c.684 0 1.241.175 1.67.524.437.342.655.884.655 1.626v3.743zm-1.222-2.16v-.492h-1.375c-.881 0-1.321.277-1.321.83 0 .283.109.502.327.654.219.146.521.219.906.219.393 0 .735-.11 1.026-.328.291-.218.437-.513.437-.884zm4.146 2.16h-1.222v-8.098h1.222v8.098zm2.995 0h-1.223v-8.098h1.223v8.098z"/>
    <circle cx="200.537" cy="21.827" r="2.728" fill="#fff"/>
    <rect width="65.481" height="2.728" x="126.871" y="20.463" fill="#fff" rx="1.364"/>
    <path stroke="#1A2643" stroke-linecap="round" stroke-linejoin="round" stroke-width="2.728" d="M30.265 265.335c-38.484-71.33-38.584-111.14 0-181.815M40.959 253.785c-33.61-62.268-33.698-97.019 0-158.715M48.659 233.25c-25.065-46.155-25.13-71.914 0-117.645M298.736 83.52c38.483 71.33 38.584 111.14 0 181.815M288.042 95.07c33.61 62.268 33.698 97.019 0 158.715M280.342 115.605c25.065 46.155 25.13 71.914 0 117.645"/>
    <defs>
        <clipPath id="a">
            <path fill="#fff" d="M0 0h176.614v332.089H0z" transform="translate(76.396 8.185) scale(1.00028)"/>
        </clipPath>
    </defs>
</svg>
