<svg xmlns="http://www.w3.org/2000/svg" width="172" height="24" fill="none" viewBox="0 0 172 24">
    <path fill="#939393" d="M12.847 2.48C12.847.495 11.077 0 9.682 0v.298c.837 0 1.489.297 1.489.991 0 .397-.28.992-1.117.992-.652 0-2.048-.397-3.072-.793C5.772.992 4.655.595 3.724.595 1.862.595.559 2.083.559 3.769c0 1.487 1.024 1.983 1.396 2.181l.093-.198c-.186-.198-.465-.397-.465-.992 0-.396.372-1.09 1.303-1.09.838 0 1.955.396 3.444.892 1.304.397 2.7.694 3.445.793V8.43L8.378 9.719v.1l1.397 1.288v4.265c-.745.496-1.583.595-2.328.595-1.396 0-2.606-.397-3.63-1.587l3.817-1.983V5.554L2.979 7.736c.372-1.29 1.396-2.182 2.42-2.777l-.093-.298C2.513 5.455 0 8.231 0 11.603c0 3.967 3.072 6.943 6.516 6.943 3.724 0 6.145-3.174 6.145-6.447h-.187c-.558 1.29-1.396 2.48-2.42 3.075v-4.067l1.49-1.289V9.72l-1.49-1.29V5.356c1.396 0 2.793-.991 2.793-2.876zm-8.1 10.908l-1.116.595c-.652-.892-1.024-2.082-1.024-3.768 0-.694 0-1.488.186-2.083l1.955-.892v6.148zm9.868 2.281l-1.21.992.186.198.559-.495 2.048 1.983 2.793-1.983-.093-.199-.745.496-.931-.992V8.926l.745-.595 1.582 1.388v6.05c0 3.768-.744 4.363-2.327 4.958v.298c2.606.099 5.027-.794 5.027-5.653V8.826l.838-.694-.186-.198-.745.595-2.328-2.083-2.606 2.083V.397h-.186l-3.258 2.38v.198c.372.199.93.397.93 1.488l-.093 11.206zm17.036-1.09l-2.327 1.884-2.327-1.984v-1.19l4.375-3.173v-.1l-2.234-3.57-4.841 2.777v6.546l-.931.793.186.198.838-.694 3.165 2.48 4.19-3.57-.094-.398zm-4.654-1.686v-4.86l.186-.1 2.048 3.472-2.234 1.488zM49.432 1.587c0-.298-.093-.595-.187-.893h-.186c-.279.794-.651 1.19-1.582 1.19-.838 0-1.397-.496-1.769-.892l-2.7 3.272.187.199.93-.893c.559.496 1.025.893 2.328.992v8.231L40.96 2.777c-.465-.794-1.117-1.884-2.42-1.884-1.49 0-2.793 1.388-2.607 3.57h.28c.093-.595.372-1.29 1.024-1.29.465 0 .93.496 1.21.992v3.273c-1.676 0-2.793.793-2.793 2.281 0 .793.372 1.984 1.49 2.281v-.198a.929.929 0 0 1-.28-.695c0-.495.373-.892 1.024-.892h.466v4.165c-1.955 0-3.538 1.19-3.538 3.174 0 1.884 1.49 2.777 3.165 2.677v-.198c-1.024-.1-1.489-.595-1.489-1.29 0-.892.559-1.288 1.303-1.288.745 0 1.397.495 1.862 1.09l2.7-3.173-.187-.198-.651.793c-1.024-.992-1.583-1.29-2.793-1.488V4.562l7.447 13.884h.559V4.562c1.396-.1 2.7-1.29 2.7-2.975zm6.795 12.992L53.9 16.462l-2.327-1.984v-1.19l4.375-3.173v-.1l-2.234-3.57-4.84 2.777v6.546l-.932.793.186.198.838-.694 3.165 2.48 4.19-3.57-.094-.398zm-4.654-1.686v-4.86l.186-.1 2.048 3.472-2.234 1.488zM71.4 7.537l-.651.496-1.769-1.587-2.048 1.984.838.892v7.438l-2.234-1.487V9.124l.744-.496-2.14-2.182-2.049 1.984.838.892v7.14l-.28.2-1.954-1.488v-5.95c0-1.39-.652-1.786-1.397-2.282-.651-.496-1.024-.793-1.024-1.487 0-.596.559-.893.838-1.091v-.199c-.745 0-2.7.794-2.7 2.678 0 .992.466 1.388.931 1.884.466.496.931.893.931 1.785v5.753l-1.024.793.187.198.93-.793 2.142 1.983 2.327-1.686 2.606 1.686 4.934-3.074V8.727l1.21-.991-.186-.199zm17.315-5.454l-.93.892L85.736.992l-3.072 2.38V1.19h-.279l.093 16.066c-.279 0-1.117-.198-1.769-.396L80.524 3.47c0-.992-.651-2.38-2.327-2.38s-2.793 1.388-2.793 2.777h.28c.093-.595.372-1.091.93-1.091.559 0 1.024.397 1.024 1.686V8.33c-1.675.099-2.7 1.09-2.7 2.38 0 .793.373 1.983 1.49 1.983v-.198c-.372-.199-.465-.496-.465-.694 0-.595.465-.794 1.21-.794h.372v6.149c-1.396.496-1.954 1.587-1.954 2.777 0 1.686 1.21 2.876 3.072 2.876 1.303 0 2.42-.198 3.537-.496.93-.198 2.141-.496 2.7-.496.744 0 1.024.397 1.024.893 0 .694-.28.992-.652 1.09V24c1.49-.297 2.42-1.29 2.42-2.777 0-1.488-1.396-2.38-2.885-2.38-.745 0-2.328.297-3.445.496-1.303.297-2.606.496-2.979.496-.651 0-1.396-.298-1.396-1.29 0-.793.651-1.487 2.234-1.487.838 0 1.862.099 2.886.396 1.117.298 2.141.596 3.072.596 1.396 0 2.606-.496 2.606-2.579V3.273l1.118-.992-.187-.198zM84.9 8.133c-.28.297-.652.594-1.118.594-.465 0-.93-.297-1.117-.595V3.77l.931-.695 1.304 1.29v3.768zm0 2.974c-.187-.198-.652-.495-1.118-.495-.465 0-.93.297-1.117.495V8.53c.187.198.652.496 1.117.496.466 0 .931-.298 1.118-.496v2.578zm0 4.662c0 .793-.466 1.586-1.49 1.586h-.745v-5.85c.187-.2.652-.497 1.117-.497.466 0 .838.298 1.118.496v4.265zm12.753-7.042l-2.979-2.28-4.561 2.776v6.446l-.931.794.093.198.745-.595 2.979 2.38 4.654-2.975V8.727zm-5.027 6.248v-7.14l2.328 1.785v7.041l-2.328-1.686zm13.871-8.33h-.186c-.28.198-.559.396-.838.396-.372 0-.838-.198-1.024-.496h-.186L102.68 8.43l-1.582-1.885-2.793 1.984.093.198.745-.496.931 1.091v6.248l-1.21.992.186.198.558-.495 2.234 1.983 2.886-2.083-.093-.198-.838.496-1.117-.992V8.53c.466.496 1.024.992 1.676.992 1.303.099 2.048-1.29 2.141-2.876zm11.171 9.52l-3.165 2.281-4.282-6.942 3.072-5.058h.186c.372.397.931.794 1.582.794.652 0 1.117-.397 1.397-.794h.186c-.093 1.984-1.396 3.174-2.327 3.174s-1.397-.496-1.955-.794l-.28.496 4.655 7.34.931-.596v.1zm-10.24-.496l-1.21.992.186.198.558-.495 2.048 1.983 2.793-1.983-.186-.199-.745.496-.931-.992V.397h-.093l-3.351 2.38v.198c.372.199.931.298.931 1.488v11.206zm25.693-13.19c0-1.983-1.769-2.479-3.165-2.479v.298c.838 0 1.489.297 1.489.991 0 .397-.279.992-1.117.992-.651 0-2.048-.397-3.072-.793-1.21-.397-2.327-.794-3.258-.794-1.862 0-3.165 1.488-3.165 3.174 0 1.487 1.024 1.983 1.396 2.182l.094-.199c-.28-.198-.559-.396-.559-.992 0-.396.372-1.09 1.303-1.09.838 0 1.955.396 3.445.892 1.303.397 2.699.694 3.444.794v3.074l-1.396 1.29v.098l1.396 1.29v4.264c-.745.496-1.583.595-2.327.595-1.397 0-2.607-.397-3.631-1.587l3.817-1.983V5.554l-4.655 2.182c.466-1.29 1.49-2.182 2.421-2.877l-.093-.198c-2.793.794-5.307 3.471-5.307 6.843 0 3.967 3.072 6.942 6.517 6.942 3.723 0 6.144-3.173 6.144-6.446h-.186c-.559 1.29-1.397 2.48-2.421 3.074v-4.066l1.49-1.289v-.1l-1.397-1.288V5.355c1.397 0 2.793-.991 2.793-2.876zm-8.099 10.91l-1.117.595c-.652-.893-1.024-2.083-1.024-3.77 0-.693.093-1.487.279-2.082l1.955-.892-.093 6.148zm11.357-11.901h-.093l-1.862 1.686v.099l1.583 1.884h.186l1.862-1.686v-.1l-1.676-1.883zm2.793 14.677l-.745.496-.931-.992V8.826l.931-.694-.186-.198-.651.595-1.676-2.083-2.7 1.984.186.297.652-.496.838 1.091v6.447l-1.21.991.093.199.651-.496 2.048 1.983 2.793-1.983-.093-.298zm15.546-.099l-.651.496-1.024-.992V8.826l.931-.793-.186-.198-.745.694-2.141-2.083-2.793 2.083-2.141-2.083-2.607 2.083-1.675-2.083-2.7 1.984.093.297.652-.496.931 1.091v6.447l-.745.793 2.141 1.884 2.048-1.983-.838-.893V8.826l.838-.595 1.396 1.389v5.95l-.744.794 2.141 1.884 2.048-1.983-.838-.893V8.826l.745-.495 1.489 1.388v5.95l-.652.695 2.142 2.082 2.885-2.082v-.298zm8.099-1.487l-2.327 1.884-2.327-1.984v-1.19l4.375-3.173v-.1l-2.234-3.57-4.841 2.777v6.744l3.258 2.48 4.189-3.571-.093-.297zm-4.654-1.686v-4.86l.186-.1 2.048 3.472-2.234 1.488zM171.289 12l-1.769-1.488c1.21-1.09 1.676-2.578 1.676-3.57v-.595h-.187c-.186.496-.558.992-1.303.992-.745 0-1.21-.397-1.675-.992l-4.19 2.48v3.57l1.583 1.289c-1.583 1.488-1.862 2.48-1.862 3.273 0 .991.466 1.686 1.21 1.983l.093-.198c-.186-.198-.372-.298-.372-.794 0-.297.372-.793 1.117-.793.931 0 1.49.694 1.769.992l4.003-2.579V12h-.093zm-1.024-2.975c-.652 1.19-2.048 2.38-2.886 2.975l-1.024-.893v-3.47c.372.991 1.396 1.784 2.42 1.784.652 0 1.024-.099 1.49-.396zm-1.583 7.934c-.465-1.091-1.582-1.885-2.699-1.885-.28 0-1.025 0-1.769.496.465-.793 1.675-2.182 3.258-3.173l1.117.991.093 3.57z"/>
</svg>
