<svg xmlns="http://www.w3.org/2000/svg" width="78" height="32" fill="none" viewBox="0 0 78 32">
    <path fill="#000" d="M3.185 25.363c-1.034 0-2.046-.125-2.87-.339l.128-2.171a9.104 9.104 0 0 0 2.952.527c1.562 0 2.827-.653 2.827-2.192 0-2.997-6.222-1.73-6.222-6.33 0-2.447 1.92-4.155 5.232-4.155.843 0 1.707.104 2.573.252l-.127 2.047a8.977 8.977 0 0 0-2.573-.4c-1.772 0-2.679.821-2.679 2.003 0 2.848 6.223 1.794 6.223 6.243-.001 2.617-2.068 4.515-5.464 4.515zm11.01-.065c-.59 0-1.033-.02-1.582-.125v4.564h-2.257V14.668h2.13c0 .55-.02 1.393-.126 1.962h.042c.59-1.33 1.793-2.173 3.396-2.173 2.489 0 3.86 1.77 3.86 4.935 0 3.693-1.96 5.906-5.463 5.906zm1.013-8.984c-1.688 0-2.595 1.983-2.595 3.773v3.23c.485.148 1.012.212 1.645.212 1.793 0 3.016-1.098 3.016-3.925 0-2.109-.653-3.29-2.066-3.29zm11.688.357c-2.088-.379-3.1 1.077-3.1 4.22v4.26h-2.258V14.668h2.152c0 .59-.064 1.52-.212 2.32h.043c.464-1.413 1.519-2.722 3.481-2.531l-.106 2.214zm3.223-3.563c-.802 0-1.456-.634-1.456-1.415 0-.78.654-1.413 1.456-1.413.78 0 1.434.612 1.434 1.413 0 .781-.654 1.415-1.434 1.415zm1.117 12.043H28.98V14.668h2.256v10.483zm9.284 0v-6.75c0-1.307-.36-2.066-1.561-2.066-1.582 0-2.744 1.665-2.744 3.752v5.065h-2.257V14.668h2.152c0 .55-.042 1.455-.147 2.046l.021.02c.611-1.35 1.878-2.278 3.65-2.278 2.383 0 3.121 1.498 3.121 3.355v7.34H40.52zm8.454.19c-2.236 0-2.912-.865-2.912-3.205V16.42H44.06v-1.75h2.002v-3.334l2.236-.612v3.945h2.763v1.75h-2.74v5.021c0 1.562.316 1.983 1.37 1.983.464 0 .97-.063 1.37-.169v1.857c-.61.127-1.391.23-2.087.23z"/>
    <path fill="#FFDD05" d="M61.315 22.248c3.074-3.958 5.493-8.608 5.493-11.947 0-1.745-1.25-2.963-2.88-3.889.032 3.629-1.225 12.137-2.613 15.836zM51.23 32c7.207-2.41 17.654-8.027 24.92-13.045.61-.42 1.085-.81 1.085-1.492 0-1.185-2.171-2.775-3.225-3.407C68.294 19.999 56.915 28.904 51.231 32z"/>
    <path fill="#FFDD05" d="M57.916 26.952c4.444-3.072 10.9-8.852 13.085-11.997.515-.74.896-1.168.896-1.942 0-1.27-1.481-2.2-2.546-2.847C66.8 16.18 61.066 23.67 57.916 26.952zm4.049-8.521c.575-3.798.237-8.383-.497-11.259-.4-1.566-1.81-3.333-3.117-3.885 1.712 4.859 3.182 11.779 3.614 15.144z"/>
    <path fill="#FFDD05" d="M60.7 13.103C59.353 9.464 55.998 1.879 51.062 0c3.214 3.546 7.98 10.582 9.638 13.103z"/>
</svg>
