<svg xmlns="http://www.w3.org/2000/svg" width="129" height="18" fill="none" viewBox="0 0 129 18">
    <path fill="#E6007E" d="M0 8.116h3.584v3.583H0V8.116zm10.751 0h3.583v3.583H10.75V8.116zm10.766 0H25.1v3.583h-3.583V8.116z"/>
    <path fill="#E6007E" d="M30.049 13.864c0 1.137.167 1.875.5 2.215.282.29.761.467 1.434.535.2.018.54.025 1.022.025v.995h-8.631v-.995c.692 0 1.205-.034 1.535-.1.669-.141 1.09-.53 1.264-1.17.09-.331.136-.832.136-1.504V.846c-1.466.042-2.61.527-3.438 1.456-.786.888-1.264 2.25-1.438 4.083l-.935-.16L21.672 0h14.035l.174 6.226-.933.16c-.175-1.834-.656-3.196-1.445-4.084C32.67 1.373 31.52.888 30.05.846v13.018h-.001z"/>
    <path fill="#E6007E" d="M32.33 8.115h3.582V11.7h-3.583V8.115zm10.748 0h3.584V11.7h-3.584V8.115zm24.133 9.52h-.783L61.948 2.19v11.136c0 1.114.042 1.83.125 2.155.248.887.834 1.33 1.753 1.33h.337v.823h-5.264v-.823h.41c.39 0 .734-.13 1.035-.397.28-.25.463-.626.547-1.133.056-.38.086-1.033.086-1.955V3.484c0-.588-.024-.974-.074-1.157-.1-.406-.321-.663-.66-.773-.2-.065-.49-.099-.872-.099H58.9V.647h4.927l3.635 12.496L71.17.647h4.968v.808h-.349c-.64 0-1.089.134-1.346.4-.173.167-.278.397-.311.695-.049.375-.076.848-.076 1.42v10.34c0 .863.046 1.437.137 1.72.185.522.716.782 1.596.782h.349v.823H69.75v-.823h.213c.637 0 1.089-.127 1.355-.384.175-.168.279-.402.311-.71.051-.364.075-.833.075-1.408V2.19L67.21 17.634zM81.567 5.547c1.59 0 2.877.626 3.866 1.879.864 1.096 1.298 2.537 1.298 4.322 0 1.81-.434 3.266-1.298 4.372-.981 1.252-2.295 1.879-3.94 1.879-1.554 0-2.824-.627-3.805-1.88-.864-1.105-1.295-2.553-1.295-4.347 0-1.802.431-3.25 1.295-4.346.99-1.252 2.283-1.88 3.879-1.88zm0 .82c-.581 0-1.101.237-1.558.708-.758.78-1.135 2.306-1.135 4.573 0 1.877.233 3.298.698 4.26.416.847 1.08 1.271 1.995 1.271 1.788 0 2.682-1.82 2.682-5.458 0-1.676-.195-2.95-.588-3.822a2.739 2.739 0 0 0-1.057-1.247 1.984 1.984 0 0 0-1.037-.286zm9.408 1.2c.217-.492.495-.874.836-1.15a3.379 3.379 0 0 1 2.187-.764c1.229 0 2.236.436 3.024 1.308 1.02 1.137 1.528 2.668 1.528 4.594 0 1.834-.454 3.37-1.367 4.606-.856 1.153-1.981 1.73-3.373 1.73a3.77 3.77 0 0 1-2.08-.608c-.131-.083-.413-.303-.846-.66-.165-.133-.31-.198-.435-.198-.15 0-.316.133-.498.398-.187.264-.365.535-.535.81h-.848c.084-.242.127-.386.137-.436.075-.34.11-1.031.11-2.077V3.461c0-.92-.102-1.493-.309-1.716-.175-.208-.502-.312-.984-.312h-.187V.649l3.639-.174v7.093h.001zm2.683-1.007c-.556 0-1.075.216-1.555.646-.895.822-1.343 2.303-1.343 4.447 0 1.659.212 2.938.634 3.842.224.48.547.862.97 1.143.348.23.742.346 1.182.346 1.683 0 2.523-1.792 2.523-5.38 0-1.64-.21-2.906-.634-3.801-.397-.83-.988-1.243-1.777-1.243zm9.615-.824v9.047c0 .937.105 1.523.313 1.754.173.207.5.311.983.311h.409v.785H99.41v-.785h.411c.481 0 .808-.104.983-.311.208-.24.311-.825.311-1.754V8.736c0-.921-.103-1.497-.311-1.73-.175-.2-.502-.299-.983-.299h-.287v-.796l3.739-.174zm-1.258-5.22c.372 0 .691.138.956.411.273.275.411.6.411.982s-.132.708-.399.982c-.273.274-.603.41-.994.41a1.31 1.31 0 0 1-.981-.41 1.34 1.34 0 0 1-.412-.982c0-.398.14-.73.424-.993.272-.266.605-.4.995-.4zm7.708-.047v14.312c0 .931.103 1.515.313 1.756.183.207.509.311.983.311h.411v.784h-5.57v-.784h.414c.479 0 .806-.104.98-.311.207-.241.312-.825.312-1.756V3.47c0-.92-.105-1.497-.312-1.73-.174-.207-.501-.31-.98-.31h-.288V.643l3.737-.174zm11.83 11.229h-6.971c.008 1.642.179 2.854.51 3.643.465 1.11 1.262 1.664 2.39 1.664.88 0 1.614-.348 2.203-1.046.322-.38.647-.908.97-1.58l.76.398c-1.073 2.15-2.516 3.222-4.338 3.222-1.335 0-2.433-.456-3.287-1.37-1.066-1.137-1.597-2.78-1.597-4.931 0-1.976.531-3.556 1.597-4.745.839-.937 1.847-1.408 3.027-1.408 1.753 0 3.07.883 3.949 2.647.476.94.736 2.107.787 3.506zm-2.354-.907c0-1.036-.112-1.89-.336-2.561-.404-1.185-1.045-1.777-1.917-1.777-.979 0-1.671.728-2.075 2.189-.166.586-.255 1.302-.262 2.149h4.59zM53.826 8.115h3.583V11.7h-3.583V8.115zm70.798 0h3.583V11.7h-3.583V8.115z"/>
</svg>
