<svg xmlns="http://www.w3.org/2000/svg" width="96" height="22" fill="none" viewBox="0 0 96 22">
    <path fill="#F00" d="M93.79.032A28.012 28.012 0 0 1 96 .012c-2.21 4.616-4.343 9.27-6.496 13.903h-1.803c-.989-2.326-2.152-4.595-3.18-6.922.718-.02 1.435-.02 2.153 0 .62 1.435 1.357 2.812 1.92 4.246C90.318 7.497 92.102 3.774 93.79.032z"/>
    <path fill="#000" d="M38.276 2.01c1.415.02 2.85.02 4.265 0-.019 1.26-.019 2.54 0 3.8-1.415-.019-2.85 0-4.285-.019.039-1.26 0-2.52.02-3.78zM16.81 7.44c2.909-1.649 7.136-1.087 9.094 1.764 1.202 1.687 1.551 3.82 1.532 5.836-3.335.02-6.67 0-10.006.02.156 1.027.602 2.113 1.552 2.656 1.357.795 3.49.562 4.168-1.008a72.6 72.6 0 0 1 4.111 0c-.426 1.57-1.57 2.908-3.005 3.645-1.551.853-3.413 1.008-5.139.717-1.822-.29-3.51-1.318-4.537-2.85-1.124-1.629-1.415-3.703-1.163-5.623.252-2.114 1.512-4.11 3.393-5.158zm2.269 2.423c-.95.446-1.416 1.474-1.63 2.463h5.701c-.116-.757-.387-1.552-.969-2.075-.814-.795-2.113-.815-3.102-.388zm42.444-3.16c2.288-.408 4.828.077 6.593 1.667 3.005 2.676 3.14 7.853.349 10.723-2.21 2.307-5.914 2.733-8.745 1.434-2.191-.989-3.684-3.218-3.936-5.584-.097-1.377-.04-2.792.523-4.072.853-2.19 2.928-3.78 5.216-4.169zm.485 3.16c-1.202.427-1.765 1.726-1.94 2.909-.135 1.473-.115 3.14.835 4.362 1.027 1.338 3.296 1.3 4.324-.02.853-1.066.989-2.52.892-3.838-.059-1.164-.466-2.405-1.435-3.122-.776-.524-1.804-.601-2.676-.291zm14.736-2.366c1.416-1.105 3.432-1.221 5.061-.562 1.163.504 2.036 1.532 2.443 2.715.466 1.221.33 2.54.33 3.82 0 2.443-.02 4.886.02 7.31-1.416.019-2.832 0-4.267.019v-8.377c0-.717-.271-1.493-.872-1.939-.911-.62-2.23-.504-3.006.272-.62.62-.892 1.512-.872 2.365V20.8c-1.396-.02-2.812 0-4.208-.02 0-4.614.02-9.23 0-13.844 1.377.02 2.734-.02 4.11.02-.018.64-.018 1.28-.038 1.92.427-.466.776-.99 1.3-1.378zM0 6.974h4.42c.893 2.967 1.843 5.933 2.677 8.92C8.124 12.964 8.9 9.94 9.869 6.973c1.416-.02 2.85 0 4.266-.02-1.628 4.615-3.219 9.23-4.828 13.845-1.473 0-2.947-.02-4.42.02C3.198 16.222 1.706 11.548 0 6.973zm28.406-.02h4.072c-.02.776 0 1.552-.039 2.327.35-.388.601-.872.97-1.24.911-1.009 2.404-1.416 3.723-1.067-.02 1.221-.02 2.443 0 3.645-1.047-.116-2.21-.077-3.103.563-.95.659-1.376 1.88-1.357 3.005-.02 2.21 0 4.401 0 6.612-1.415 0-2.85-.02-4.266.02.02-4.635.02-9.25 0-13.864zm9.87.02c1.434-.02 2.85 0 4.285-.02-.02 4.615 0 9.23 0 13.845-1.416-.02-2.85 0-4.285 0V6.974zm5.429-.02c3.858.02 7.717 0 11.556.02-.039 1.066 0 2.113-.02 3.18-.135.271-.368.465-.542.698-1.978 2.19-3.917 4.44-5.933 6.612 2.268.039 4.537 0 6.805.02v3.334c-3.955-.02-7.91-.02-11.866 0V17.6c2.075-2.326 4.13-4.634 6.224-6.941.058-.116.31-.233.174-.388-2.132.058-4.265 0-6.398.039V6.955z"/>
</svg>
